<?xml version="1.0" encoding="UTF-8"?>
<!DOCTYPE svg PUBLIC "-//W3C//DTD SVG 1.1//EN" "http://www.w3.org/Graphics/SVG/1.1/DTD/svg11.dtd">
<svg version="1.1" xmlns="http://www.w3.org/2000/svg" xmlns:xlink="http://www.w3.org/1999/xlink" x="0" y="0" width="300" height="200" viewBox="0, 0, 300, 200">
  <defs>
    <linearGradient id="Gradient_1" gradientUnits="userSpaceOnUse" x1="0" y1="100" x2="300" y2="100">
      <stop offset="0" stop-color="#8C2FFF"/>
      <stop offset="1" stop-color="#EB8BE8"/>
    </linearGradient>
  </defs>
  <g id="Layer_3">
    <path d="M0,0 L300,0 L300,200 L0,200 L0,0 z" fill="url(#Gradient_1)"/>
  </g>
  <g id="Layer_5">
    <path d="M301,-1 L301,201 L-1,201 L-1,-1 L301,-1 z M210.532,117.419 L206.569,117.701 C167.388,121.654 146.167,141.556 131,168.143 L297.802,196.094 C287.319,161.904 263.315,125.846 225.904,118.581 C219.115,117.263 217.443,117.538 210.532,117.419 z M80.285,87.102 L80.285,105.141 L1.445,103.098 L1.445,141.03 L80.285,130.624 L79.91,151.968 L107.847,116.66 L80.285,87.102 z M210.421,2.624 C193.215,2.054 174.728,26.961 174.728,54.477 C174.728,81.995 193.205,102.271 210.42,102.271 C229.317,102.271 243.853,80.698 243.853,53.181 C243.853,25.664 229.963,3.272 210.42,2.625 L210.421,2.624 z M218.716,37.889 C221.969,37.889 224.605,41.628 224.605,46.241 C224.605,50.853 221.969,54.592 218.716,54.591 C215.464,54.592 212.827,50.853 212.827,46.241 C212.827,41.628 215.464,37.889 218.716,37.889 z M193.029,38.389 C196.087,38.389 198.566,41.905 198.566,46.241 C198.566,50.577 196.087,54.092 193.029,54.092 C189.972,54.092 187.492,50.577 187.492,46.241 C187.492,41.905 189.972,38.389 193.029,38.389 z" fill="#383838"/>
  </g>
</svg>
