<?xml version="1.0" encoding="UTF-8"?>
<!DOCTYPE svg PUBLIC "-//W3C//DTD SVG 1.1//EN" "http://www.w3.org/Graphics/SVG/1.1/DTD/svg11.dtd">
<svg version="1.1" xmlns="http://www.w3.org/2000/svg" xmlns:xlink="http://www.w3.org/1999/xlink" x="0" y="0" width="300" height="200" viewBox="0, 0, 300, 200">
  <defs>
    <linearGradient id="Gradient_1" gradientUnits="userSpaceOnUse" x1="131.126" y1="156.166" x2="296.823" y2="156.166">
      <stop offset="0" stop-color="#AC98FF"/>
      <stop offset="0" stop-color="#AC98FF"/>
      <stop offset="1" stop-color="#BC48FF" stop-opacity="0.25"/>
    </linearGradient>
    <linearGradient id="Gradient_2" gradientUnits="userSpaceOnUse" x1="2.429" y1="119.341" x2="108.126" y2="119.341">
      <stop offset="0" stop-color="#9982F6"/>
      <stop offset="1" stop-color="#BC48FF" stop-opacity="0.25"/>
    </linearGradient>
    <linearGradient id="Gradient_3" gradientUnits="userSpaceOnUse" x1="174.564" y1="52.914" x2="243.231" y2="52.914">
      <stop offset="0" stop-color="#AC98FF"/>
      <stop offset="0" stop-color="#AC98FF"/>
      <stop offset="1" stop-color="#BC48FF" stop-opacity="0.25"/>
    </linearGradient>
    <linearGradient id="Gradient_4" gradientUnits="userSpaceOnUse" x1="0" y1="100" x2="300" y2="100">
      <stop offset="0" stop-color="#8C2FFF"/>
      <stop offset="1" stop-color="#EB8BE8"/>
    </linearGradient>
  </defs>
  <g id="Layer_1" opacity="0.705">
    <path d="M80.747,87.23 L80.747,105.09 L2.429,103.067 L2.429,140.624 L80.747,130.321 L80.374,151.453 L108.126,116.495 L80.747,87.23 z" fill="#FFFFFF"/>
    <path d="M210.021,3.588 C192.929,3.024 174.564,27.684 174.564,54.928 C174.564,82.173 192.919,102.249 210.02,102.249 C228.792,102.249 243.231,80.889 243.231,53.645 C243.231,26.4 229.433,4.23 210.02,3.589 L210.021,3.588 z M218.261,38.504 C221.492,38.504 224.111,42.206 224.111,46.773 C224.111,51.34 221.492,55.042 218.261,55.041 C215.03,55.042 212.411,51.34 212.411,46.773 C212.411,42.206 215.03,38.504 218.261,38.504 z M192.744,38.999 C195.782,38.999 198.244,42.48 198.244,46.773 C198.244,51.066 195.782,54.547 192.744,54.547 C189.707,54.547 187.244,51.066 187.244,46.773 C187.244,42.48 189.707,38.999 192.744,38.999 z" fill="#FFFFFF"/>
    <path d="M206.194,117.526 C167.273,121.44 146.192,141.145 131.126,167.469 L296.823,195.143 C283.37,149.758 248.424,113.28 206.194,117.526 z" fill="#FFFFFF"/>
  </g>
  <g id="Layer_3">
    <path d="M206.194,117.526 C167.273,121.44 146.192,141.145 131.126,167.468 L296.823,195.143 C283.37,149.758 248.424,113.28 206.194,117.526 z" fill="url(#Gradient_1)"/>
    <path d="M80.747,87.23 L80.747,105.09 L2.429,103.067 L2.429,140.624 L80.747,130.321 L80.374,151.453 L108.126,116.495 L80.747,87.23 z" fill="url(#Gradient_2)"/>
    <path d="M210.021,3.588 C192.929,3.024 174.564,27.684 174.564,54.928 C174.564,82.173 192.919,102.249 210.02,102.249 C228.792,102.249 243.231,80.889 243.231,53.645 C243.231,26.4 229.433,4.23 210.02,3.589 L210.021,3.588 z M218.261,38.504 C221.492,38.504 224.111,42.206 224.111,46.773 C224.111,51.34 221.492,55.042 218.261,55.041 C215.03,55.042 212.411,51.34 212.411,46.773 C212.411,42.206 215.03,38.504 218.261,38.504 z M192.744,38.999 C195.782,38.999 198.244,42.48 198.244,46.773 C198.244,51.066 195.782,54.547 192.744,54.547 C189.707,54.547 187.244,51.066 187.244,46.773 C187.244,42.48 189.707,38.999 192.744,38.999 z" fill="url(#Gradient_3)"/>
  </g>
  <g id="Layer_3">
    <path d="M0,0 L300,0 L300,200 L0,200 L0,0 z" fill="url(#Gradient_4)"/>
  </g>
  <g id="Layer_5">
    <path d="M301,-1 L301,201 L-1,201 L-1,-1 L301,-1 z M210.532,117.419 L206.569,117.701 C167.388,121.654 146.167,141.556 131,168.143 L297.802,196.094 C287.319,161.904 263.315,125.846 225.904,118.581 C219.115,117.263 217.443,117.538 210.532,117.419 z M80.285,87.102 L80.285,105.141 L1.445,103.098 L1.445,141.03 L80.285,130.624 L79.91,151.968 L107.847,116.66 L80.285,87.102 z M210.421,2.624 C193.215,2.054 174.728,26.961 174.728,54.477 C174.728,81.995 193.205,102.271 210.42,102.271 C229.317,102.271 243.853,80.698 243.853,53.181 C243.853,25.664 229.963,3.272 210.42,2.625 L210.421,2.624 z M218.716,37.889 C221.969,37.889 224.605,41.628 224.605,46.241 C224.605,50.853 221.969,54.592 218.716,54.591 C215.464,54.592 212.827,50.853 212.827,46.241 C212.827,41.628 215.464,37.889 218.716,37.889 z M193.029,38.389 C196.087,38.389 198.566,41.905 198.566,46.241 C198.566,50.577 196.087,54.092 193.029,54.092 C189.972,54.092 187.492,50.577 187.492,46.241 C187.492,41.905 189.972,38.389 193.029,38.389 z" fill="#FFFFFF"/>
  </g>
  <g id="Layer_4"/>
</svg>
