<?xml version="1.0" encoding="utf-8"?>
<!-- Generator: Adobe Illustrator 24.0.3, SVG Export Plug-In . SVG Version: 6.00 Build 0)  -->
<svg version="1.1" id="Layer_1" xmlns="http://www.w3.org/2000/svg" xmlns:xlink="http://www.w3.org/1999/xlink" x="0px" y="0px"
	 viewBox="0 0 300 200" style="enable-background:new 0 0 300 200;" xml:space="preserve">
<style type="text/css">
	.st0{fill:url(#SVGID_1_);}
	.st1{fill:url(#SVGID_2_);}
	.st2{fill:url(#SVGID_3_);}
</style>
<linearGradient id="SVGID_1_" gradientUnits="userSpaceOnUse" x1="64.4916" y1="-68.2322" x2="208.4916" y2="167.7678">
	<stop  offset="0" style="stop-color:#5F41DB"/>
	<stop  offset="0.7717" style="stop-color:#B64CF3"/>
	<stop  offset="0.9987" style="stop-color:#C562F0"/>
</linearGradient>
<path class="st0" d="M206.2,117.5c-38.9,3.9-60,23.6-75.1,49.9l165.7,27.7C283.4,149.8,248.4,113.3,206.2,117.5z"/>
<linearGradient id="SVGID_2_" gradientUnits="userSpaceOnUse" x1="-29.7223" y1="-10.7457" x2="114.2777" y2="225.2543">
	<stop  offset="0" style="stop-color:#5F41DB"/>
	<stop  offset="0.7717" style="stop-color:#B64CF3"/>
	<stop  offset="0.9987" style="stop-color:#C562F0"/>
</linearGradient>
<path class="st1" d="M80.7,87.2v17.9l-78.3-2v37.6l78.3-10.3l-0.4,21.1l27.8-35L80.7,87.2z"/>
<linearGradient id="SVGID_3_" gradientUnits="userSpaceOnUse" x1="116.0687" y1="-99.703" x2="260.0687" y2="136.297">
	<stop  offset="0" style="stop-color:#5F41DB"/>
	<stop  offset="0.7717" style="stop-color:#B64CF3"/>
	<stop  offset="0.9987" style="stop-color:#C562F0"/>
</linearGradient>
<path class="st2" d="M210,3.6c-17.1-0.6-35.5,24.1-35.5,51.3c0,27.2,18.4,47.3,35.5,47.3c18.8,0,33.2-21.4,33.2-48.6
	C243.2,26.4,229.4,4.2,210,3.6L210,3.6z M218.3,38.5c3.2,0,5.8,3.7,5.8,8.3s-2.6,8.3-5.8,8.3c-3.2,0-5.9-3.7-5.9-8.3
	S215,38.5,218.3,38.5z M192.7,39c3,0,5.5,3.5,5.5,7.8s-2.5,7.8-5.5,7.8c-3,0-5.5-3.5-5.5-7.8S189.7,39,192.7,39z"/>
</svg>
