<?xml version="1.0" encoding="utf-8"?>
<!-- Generator: Adobe Illustrator 24.0.3, SVG Export Plug-In . SVG Version: 6.00 Build 0)  -->
<svg version="1.1" xmlns="http://www.w3.org/2000/svg" xmlns:xlink="http://www.w3.org/1999/xlink" x="0px" y="0px"
	 viewBox="0 0 609 418" style="enable-background:new 0 0 609 418;" xml:space="preserve">
<style type="text/css">
	.st0{display:none;}
	.st1{fill:#383838;}
	.st2{display:none;opacity:0.697;}
	.st3{display:inline;fill:#FFFFFF;}
	.st4{display:inline;fill:#FFFFFF;fill-opacity:0.546;}
	.st5{fill:url(#SVGID_1_);}
	.st6{fill:url(#SVGID_2_);}
	.st7{fill:url(#SVGID_3_);}
	.st8{fill:url(#SVGID_4_);}
	.st9{fill:url(#SVGID_5_);}
	.st10{fill:#FFFFFF;fill-opacity:0.821;}
	.st11{fill:url(#SVGID_6_);}
	.st12{fill:url(#SVGID_7_);}
	.st13{fill:#C16EF1;fill-opacity:0.48;}
	.st14{fill:#8C35FF;fill-opacity:0.61;}
	.st15{fill:#8C35FF;fill-opacity:0.513;}
	.st16{fill:url(#SVGID_8_);}
	.st17{fill:url(#SVGID_9_);}
	.st18{fill:url(#SVGID_10_);}
	.st19{fill:url(#SVGID_11_);fill-opacity:0.546;}
	.st20{fill:url(#SVGID_12_);}
	.st21{fill:url(#SVGID_13_);}
	.st22{fill:url(#SVGID_14_);}
	.st23{display:inline;fill:url(#SVGID_15_);}
	.st24{display:inline;fill:#FAFAFA;}
	.st25{fill:url(#SVGID_16_);}
	.st26{fill:url(#SVGID_17_);}
	.st27{fill:url(#SVGID_18_);}
	.st28{fill:url(#SVGID_19_);}
	.st29{fill:url(#SVGID_20_);}
</style>
<g id="Layer_1">
	<g id="Layer_3" class="st0">
		<path class="st1" d="M-18-8h712v488H-18V-8z"/>
	</g>
	<g id="Layer_1_1_" class="st2">
		<path class="st3" d="M606.5,94.3v273.3l-335-41.5V124.5l216-19.4v19.4l26-1.3v-20.4l8-0.7v20.8l26-1.3V99.6l10-0.9V121l26-1.3
			V96.4L606.5,94.3z"/>
		<path class="st3" d="M583.5,94.8v0.1l-0.2,0L583.5,94.8z"/>
		<path class="st3" d="M79.5,147.4l16.1,1.8v16.2l16.3,0.8v-15.1l6.8,0.8v14.7l16.3,0.8v-13.6l6.8,0.8v13.2l16.3,0.8v-12.2l76.4,8.6
			v200.2l-155,24.1V147.4z"/>
		<path class="st4" d="M30.3,242.8v172.8l76-13.2V240.5L30.3,242.8z M40.3,252.5l57-2.3v14.5l-57,3.8V252.5z"/>
		<path class="st3" d="M30.3,242.8v172.8l76-13.2V240.5L30.3,242.8z M40.3,252.5l57-2.3v14.5l-57,3.8V252.5z"/>
		<path class="st3" d="M330.5,170.4"/>
		<path class="st3" d="M96.7,2.7l38.5,106.5l31.7-26.9l-49.9-48.6l12.1-12.3l69.1,66l-55.2,44l2.1,5.7l-21.1-3.6l-36.8-104
			L55.8,60.9l51,42.6l-12.3,11.4L26.4,60.6L81.9,8.4l-2.1-5.9L96.7,2.7z"/>
	</g>
	<g id="Layer_2_1_" class="st0">
		
			<linearGradient id="SVGID_1_" gradientUnits="userSpaceOnUse" x1="121.9773" y1="362.1562" x2="2.5" y2="362.1562" gradientTransform="matrix(1 0 0 -1 0 420)">
			<stop  offset="0" style="stop-color:#5F41DB"/>
			<stop  offset="0" style="stop-color:#AC98FF"/>
			<stop  offset="0" style="stop-color:#AC98FF;stop-opacity:0.8"/>
			<stop  offset="1" style="stop-color:#C16EF1;stop-opacity:0.251"/>
		</linearGradient>
		<path class="st5" d="M29.5,31c-3.1,7-3,14-3.6,13.8l0,0c-10.1-3.4-22.9,6-23.4,19.1l0,0C2,76.9,10.2,84.3,25.8,87.4l0,0l77.6,10.9
			c8.9,1.4,17.9-7,18.5-16l0,0c0.6-9.8-4.9-17.2-13.1-19.3l0,0c0.2-3.1-0.1-8.3-1.5-11.1l0,0c-3.9-7.1-12-11.2-19.5-9.4l0,0
			c-5.4-9.4-6.3-18.3-25.7-23.9l0,0l-1.2-0.3c-3.5-0.8-6.7-1.1-9.5-1.1l0,0C38.6,17.2,32.6,24.1,29.5,31z"/>
		
			<linearGradient id="SVGID_2_" gradientUnits="userSpaceOnUse" x1="166.5" y1="370.0388" x2="30.2885" y2="370.0388" gradientTransform="matrix(1 0 0 -1 0 420)">
			<stop  offset="0" style="stop-color:#5F41DB"/>
			<stop  offset="0" style="stop-color:#AC98FF"/>
			<stop  offset="0" style="stop-color:#AC98FF;stop-opacity:0.8"/>
			<stop  offset="1" style="stop-color:#C16EF1;stop-opacity:0.251"/>
		</linearGradient>
		<path class="st6" d="M61.1,18.1c-3.4,7.4-3.3,14.8-4,14.5l0,0c-11.5-3.8-26.1,6.8-26.7,21.8l0,0c-0.6,14.9,8.7,23.3,26.5,26.9l0,0
			l88.5,14.8c10.1,1.6,20.4-7.9,21.1-18.2l0,0c0.7-11.1-5.5-19.7-15-22l0,0c0.3-3.5-0.1-9.4-1.7-12.6l0,0
			c-4.4-8-13.6-12.8-22.2-10.7l0,0c-6.1-10.7-7.1-20.9-29.3-27.3l0,0l-1.4-0.4c-4.3-0.9-8-1.3-11.4-1.3l0,0
			C71.2,3.6,64.4,10.9,61.1,18.1z"/>
		
			<linearGradient id="SVGID_3_" gradientUnits="userSpaceOnUse" x1="166.5" y1="370.0388" x2="30.2885" y2="370.0388" gradientTransform="matrix(1 0 0 -1 0 420)">
			<stop  offset="0" style="stop-color:#5F41DB"/>
			<stop  offset="0" style="stop-color:#AC98FF"/>
			<stop  offset="0" style="stop-color:#AC98FF;stop-opacity:0.8"/>
			<stop  offset="1" style="stop-color:#C16EF1;stop-opacity:0.251"/>
		</linearGradient>
		<path class="st7" d="M61.1,18.1c-3.4,7.4-3.3,14.8-4,14.5l0,0c-11.5-3.8-26.1,6.8-26.7,21.8l0,0c-0.6,14.9,8.7,23.3,26.5,26.9l0,0
			l88.5,14.8c10.1,1.6,20.4-7.9,21.1-18.2l0,0c0.7-11.1-5.5-19.7-15-22l0,0c0.3-3.5-0.1-9.4-1.7-12.6l0,0
			c-4.4-8-13.6-12.8-22.2-10.7l0,0c-6.1-10.7-7.1-20.9-29.3-27.3l0,0l-1.4-0.4c-4.3-0.9-8-1.3-11.4-1.3l0,0
			C71.2,3.6,64.4,10.9,61.1,18.1z"/>
		
			<linearGradient id="SVGID_4_" gradientUnits="userSpaceOnUse" x1="271.501" y1="190.9" x2="606.5" y2="190.9" gradientTransform="matrix(1 0 0 -1 0 420)">
			<stop  offset="0" style="stop-color:#5F41DB"/>
			<stop  offset="0" style="stop-color:#AC98FF"/>
			<stop  offset="0" style="stop-color:#AC98FF;stop-opacity:0.8"/>
			<stop  offset="0" style="stop-color:#8C35FF;stop-opacity:0.612"/>
			<stop  offset="1" style="stop-color:#C16EF1;stop-opacity:0.25"/>
		</linearGradient>
		<path class="st8" d="M606.5,91.7v274.7l-335-41.5V121.5L606.5,91.7z M513.5,121.3l-26,1.8v25.2l26-1.3V121.3z M547.5,118.8
			l-26,1.8v25.9l26-1.3V118.8z M583.5,116.3l-26,1.8v26.7l26-1.3V116.3z"/>
		
			<linearGradient id="SVGID_5_" gradientUnits="userSpaceOnUse" x1="79.499" y1="193.8995" x2="234.499" y2="193.8995" gradientTransform="matrix(1 0 0 -1 0 420)">
			<stop  offset="0" style="stop-color:#5F41DB"/>
			<stop  offset="0" style="stop-color:#AC98FF"/>
			<stop  offset="0" style="stop-color:#FBFBFF;stop-opacity:0.8"/>
			<stop  offset="0" style="stop-color:#5F41DB"/>
			<stop  offset="0" style="stop-color:#5F41DB"/>
			<stop  offset="0" style="stop-color:#8C35FF;stop-opacity:0.557"/>
			<stop  offset="1" style="stop-color:#C16EF1;stop-opacity:0.25"/>
		</linearGradient>
		<path class="st9" d="M79.5,98.5l155,18.2V333l-155,20.7V98.5z M141.9,121.6v13.9l16.3,0.8v-13.5L141.9,121.6z M118.7,119.9v14.4
			l16.3,0.8v-14.1L118.7,119.9z M95.6,118.3v15l16.3,0.8v-14.6L95.6,118.3z"/>
		<path class="st10" d="M30.3,241.6v172.8l76-13.2V239.4L30.3,241.6z M40.3,251.4l57-2.3v14.5l-57,3.8V251.4z"/>
		
			<linearGradient id="SVGID_6_" gradientUnits="userSpaceOnUse" x1="30.289" y1="93.091" x2="106.288" y2="93.091" gradientTransform="matrix(1 0 0 -1 0 420)">
			<stop  offset="0" style="stop-color:#5F41DB"/>
			<stop  offset="0" style="stop-color:#8C35FF;stop-opacity:0.606"/>
			<stop  offset="1" style="stop-color:#C16EF0;stop-opacity:0.368"/>
		</linearGradient>
		<path class="st11" d="M30.3,241.6v172.8l76-13.2V239.4L30.3,241.6z M40.3,251.4l57-2.3v14.5l-57,3.8V251.4z"/>
		
			<linearGradient id="SVGID_7_" gradientUnits="userSpaceOnUse" x1="330.499" y1="250.743" x2="330.499" y2="250.743" gradientTransform="matrix(1 0 0 -1 0 420)">
			<stop  offset="0" style="stop-color:#5F41DB"/>
			<stop  offset="0" style="stop-color:#AC98FF"/>
			<stop  offset="0" style="stop-color:#AC98FF;stop-opacity:0.8"/>
			<stop  offset="1" style="stop-color:#C16EF0;stop-opacity:0.552"/>
			<stop  offset="1" style="stop-color:#8C42B5;stop-opacity:0.452"/>
		</linearGradient>
		<path class="st12" d="M330.5,169.3"/>
		<path class="st13" d="M297.9,353.1L439,382.5l-97.1,29.3L328.1,394l43.3-10.4l-61.6-13.8L297.9,353.1z"/>
		<path class="st14" d="M252.9,353.1l4.9,16.6l-40.4,7.1l46,13.1l6,19l-120.2-33.8L252.9,353.1z"/>
		<path class="st15" d="M264.2,347h16.8l42.8,70.6h-30.3L264.2,347z"/>
	</g>
	<linearGradient id="SVGID_8_" gradientUnits="userSpaceOnUse" x1="119.1171" y1="-110.7814" x2="487.8335" y2="257.9349">
		<stop  offset="0" style="stop-color:#5F41DB"/>
		<stop  offset="0.8349" style="stop-color:#B64CF3"/>
		<stop  offset="1" style="stop-color:#C562F0"/>
	</linearGradient>
	<path class="st16" d="M606.5,93.2v273.3l-335-41.5V123.3l216-19.4v19.4l26-1.3v-20.4l8-0.7v20.8l26-1.3V98.5l10-0.9v22.2l26-1.3
		V95.3L606.5,93.2z"/>
	<linearGradient id="SVGID_9_" gradientUnits="userSpaceOnUse" x1="269.8519" y1="-219.8331" x2="598.5796" y2="108.8946">
		<stop  offset="0" style="stop-color:#5F41DB"/>
		<stop  offset="0.8349" style="stop-color:#B64CF3"/>
		<stop  offset="1" style="stop-color:#C562F0"/>
	</linearGradient>
	<path class="st17" d="M583.5,93.7v0.1l-0.2,0L583.5,93.7z"/>
	<linearGradient id="SVGID_10_" gradientUnits="userSpaceOnUse" x1="-48.1791" y1="70.7049" x2="335.1702" y2="454.0542">
		<stop  offset="0" style="stop-color:#5F41DB"/>
		<stop  offset="0.8349" style="stop-color:#B64CF3"/>
		<stop  offset="1" style="stop-color:#C562F0"/>
	</linearGradient>
	<path class="st18" d="M79.5,146.3l16.1,1.8v16.2l16.3,0.8v-15.1l6.8,0.8v14.7l16.3,0.8v-13.6l6.8,0.8v13.2l16.3,0.8v-12.2l76.4,8.6
		V364L79.5,388V146.3z"/>
	<linearGradient id="SVGID_11_" gradientUnits="userSpaceOnUse" x1="-112.4425" y1="146.178" x2="279.7816" y2="538.402">
		<stop  offset="0" style="stop-color:#5F41DB"/>
		<stop  offset="0.8349" style="stop-color:#B64CF3"/>
		<stop  offset="1" style="stop-color:#C562F0"/>
	</linearGradient>
	<path class="st19" d="M30.3,241.6v172.8l76-13.2V239.4L30.3,241.6z M40.3,251.4l57-2.3v14.5l-57,3.8V251.4z"/>
	<linearGradient id="SVGID_12_" gradientUnits="userSpaceOnUse" x1="-112.4425" y1="146.178" x2="279.7816" y2="538.402">
		<stop  offset="0" style="stop-color:#5F41DB"/>
		<stop  offset="0.8349" style="stop-color:#B64CF3"/>
		<stop  offset="1" style="stop-color:#C562F0"/>
	</linearGradient>
	<path class="st20" d="M30.3,241.6v172.8l76-13.2V239.4L30.3,241.6z M40.3,251.4l57-2.3v14.5l-57,3.8V251.4z"/>
	<linearGradient id="SVGID_13_" gradientUnits="userSpaceOnUse" x1="330.499" y1="169.257" x2="330.499" y2="169.257">
		<stop  offset="0" style="stop-color:#5F41DB"/>
		<stop  offset="0.8349" style="stop-color:#B64CF3"/>
		<stop  offset="1" style="stop-color:#C562F0"/>
	</linearGradient>
	<path class="st21" d="M330.5,169.3"/>
	<linearGradient id="SVGID_14_" gradientUnits="userSpaceOnUse" x1="21.4859" y1="1.0849" x2="375.3756" y2="354.9746">
		<stop  offset="0" style="stop-color:#5F41DB"/>
		<stop  offset="0.8349" style="stop-color:#B64CF3"/>
		<stop  offset="1" style="stop-color:#C562F0"/>
	</linearGradient>
	<path class="st22" d="M77.7,1.6l38.5,106.5l31.7-26.9L97.9,32.6l12.1-12.3l69.1,66l-55.2,44l2.1,5.7l-21.1-3.6l-36.8-104L36.8,59.8
		l51,42.6l-12.3,11.4L7.4,59.4L62.9,7.2l-2.1-5.9L77.7,1.6z"/>
	<g id="Layer_6" class="st0">
		
			<linearGradient id="SVGID_15_" gradientUnits="userSpaceOnUse" x1="0" y1="211.562" x2="606.5" y2="211.562" gradientTransform="matrix(1 0 0 -1 0 420)">
			<stop  offset="0" style="stop-color:#7C20ED"/>
			<stop  offset="1" style="stop-color:#EB8BE8"/>
		</linearGradient>
		<path class="st23" d="M0,1.3h606.5v414.2H0V1.3z"/>
	</g>
	<g id="Layer_7" class="st0">
		<path class="st24" d="M609,0v418H-2.1V0H609z M79.5,146.3v93.9l-49.2,1.5v172.8l76-13.2v-17.3L234.5,364V163.7l-76.4-8.6v12.2
			l-16.3-0.8v-13.2l-6.8-0.8v13.6l-16.3-0.8v-14.7l-6.8-0.8v15.1l-16.3-0.8v-16.2L79.5,146.3z M79.5,249.9v15l-39.2,2.6v-16
			L79.5,249.9z M606.5,93.2l-23,2.1v23.3l-26,1.3V97.6l-10,0.9v21.8l-26,1.3v-20.8l-8,0.7V122l-26,1.3v-19.4l-216,19.4V325l335,41.5
			V93.2z M60.8,1.3l2.1,5.9L7.4,59.4l68.2,54.4l12.3-11.4l-51-42.6l31.4-31.4l36.8,104l21.1,3.6l-2.1-5.7l55.2-44l-69.1-66
			L97.9,32.6l49.9,48.6l-31.7,26.9L77.7,1.6L60.8,1.3z M583.5,93.7l-0.2,0.1l0.2,0V93.7z"/>
	</g>
	<g id="Layer_2">
	</g>
</g>
<g id="Layer_3_1_">
	
		<linearGradient id="SVGID_16_" gradientUnits="userSpaceOnUse" x1="330.6872" y1="250.743" x2="330.6872" y2="250.743" gradientTransform="matrix(1 0 0 -1 0 420)">
		<stop  offset="0" style="stop-color:#5F41DB"/>
		<stop  offset="0.5761" style="stop-color:#B64CF3"/>
		<stop  offset="1" style="stop-color:#C562F0"/>
	</linearGradient>
	<path class="st25" d="M330.7,169.3"/>
	
		<linearGradient id="SVGID_17_" gradientUnits="userSpaceOnUse" x1="61.1758" y1="159.4584" x2="97.2642" y2="96.9516" gradientTransform="matrix(1 0 0 -1 0 420)">
		<stop  offset="0" style="stop-color:#5F41DB"/>
		<stop  offset="0.5761" style="stop-color:#B64CF3"/>
		<stop  offset="1" style="stop-color:#C562F0"/>
	</linearGradient>
	<path class="st26" d="M79.7,249.9l-39.2,1.6v16l0,0v-16L79.7,249.9z"/>
	
		<linearGradient id="SVGID_18_" gradientUnits="userSpaceOnUse" x1="61.1758" y1="159.4584" x2="97.2642" y2="96.9516" gradientTransform="matrix(1 0 0 -1 0 420)">
		<stop  offset="0" style="stop-color:#5F41DB"/>
		<stop  offset="0.5761" style="stop-color:#B64CF3"/>
		<stop  offset="1" style="stop-color:#C562F0"/>
	</linearGradient>
	<path class="st27" d="M79.7,249.9l-39.2,1.6v16l0,0v-16L79.7,249.9z"/>
	
		<linearGradient id="SVGID_19_" gradientUnits="userSpaceOnUse" x1="92.6408" y1="281.1947" x2="225.6468" y2="50.8215" gradientTransform="matrix(1 0 0 -1 0 420)">
		<stop  offset="0" style="stop-color:#5F41DB"/>
		<stop  offset="0.5761" style="stop-color:#B64CF3"/>
		<stop  offset="1" style="stop-color:#C562F0"/>
	</linearGradient>
	<path class="st28" d="M79.7,146.3l16.1,1.8v16.2l16.3,0.8v-15.1l6.8,0.8v14.7l16.3,0.8v-13.6l6.8,0.8v13.2l16.3,0.8v-12.2l76.4,8.6
		V364l-128.2,19.9V239.4l-26.8,0.8V146.3z"/>
	<linearGradient id="SVGID_20_" gradientUnits="userSpaceOnUse" x1="83.2664" y1="247.7876" x2="93.6914" y2="265.8442">
		<stop  offset="3.807044e-02" style="stop-color:#5F41DB"/>
		<stop  offset="0.3406" style="stop-color:#6742DD"/>
		<stop  offset="1" style="stop-color:#B64CF3"/>
	</linearGradient>
	<path class="st29" d="M97.5,249.1v14.5l-17.8,1.2v-15L97.5,249.1z"/>
</g>
</svg>
