<?xml version="1.0" encoding="UTF-8"?>
<!DOCTYPE svg PUBLIC "-//W3C//DTD SVG 1.1//EN" "http://www.w3.org/Graphics/SVG/1.1/DTD/svg11.dtd">
<svg version="1.1" xmlns="http://www.w3.org/2000/svg" xmlns:xlink="http://www.w3.org/1999/xlink" x="0" y="0" width="350" height="196" viewBox="0, 0, 350, 196">
  <g id="Text-Second">
    <g>
      <path d="M200.927,33.347 L181.498,33.347 L181.498,31.512 L200.927,31.512 z" fill="#B8B8B8"/>
      <path d="M186.726,25.784 L186.726,24.934 L180.896,24.819 L180.896,25.899 z" fill="#B8B8B8"/>
      <path d="M200.927,19.935 L181.498,19.935 L181.498,17.129 L198.633,10.76 L198.633,10.706 L181.498,4.446 L181.498,1.667 L200.927,1.667 L200.927,3.502 L183.603,3.502 L183.603,3.556 L200.927,9.924 L200.927,11.651 L183.603,18.046 L183.603,18.1 L200.927,18.1 z" fill="#B8B8B8"/>
    </g>
    <g>
      <path d="M0.86,156.705 L0.86,137.678 L7.36,137.678 Q8.153,137.678 8.919,137.717 Q9.686,137.757 10.426,137.902 Q11.166,138.048 11.866,138.338 Q12.566,138.629 13.227,139.105 Q14.178,139.792 14.786,140.783 Q15.394,141.774 15.751,142.87 Q16.107,143.967 16.253,145.09 Q16.398,146.213 16.398,147.165 Q16.398,148.116 16.279,149.094 Q16.16,150.072 15.896,151.01 Q15.632,151.948 15.196,152.807 Q14.76,153.666 14.099,154.379 Q13.438,155.119 12.659,155.568 Q11.879,156.017 11.02,156.269 Q10.162,156.52 9.237,156.612 Q8.312,156.705 7.36,156.705 z M2.656,155.172 L6.964,155.172 Q8.18,155.172 9.25,155.027 Q10.32,154.881 11.43,154.3 Q12.381,153.824 12.989,153.005 Q13.597,152.186 13.954,151.221 Q14.31,150.257 14.456,149.2 Q14.601,148.143 14.601,147.165 Q14.601,146.134 14.469,145.064 Q14.337,143.994 13.967,143.029 Q13.597,142.064 12.963,141.258 Q12.328,140.452 11.324,139.924 Q10.479,139.475 9.316,139.343 Q8.153,139.21 6.964,139.21 L2.656,139.21 z" fill="#B8B8B8"/>
      <path d="M19.939,156.705 L19.939,137.678 L32.597,137.678 L32.597,139.21 L21.736,139.21 L21.736,146.081 L31.54,146.081 L31.54,147.614 L21.736,147.614 L21.736,155.172 L32.862,155.172 L32.862,156.705 z" fill="#B8B8B8"/>
      <path d="M34.421,137.678 L36.297,137.678 L42.031,154.59 L47.739,137.678 L49.616,137.678 L43.009,156.705 L41.027,156.705 z" fill="#B8B8B8"/>
      <path d="M52.232,156.705 L52.232,137.678 L64.89,137.678 L64.89,139.21 L54.029,139.21 L54.029,146.081 L63.833,146.081 L63.833,147.614 L54.029,147.614 L54.029,155.172 L65.154,155.172 L65.154,156.705 z" fill="#B8B8B8"/>
      <path d="M68.378,156.705 L68.378,137.678 L70.175,137.678 L70.175,155.172 L80.376,155.172 L80.376,156.705 z" fill="#B8B8B8"/>
      <path d="M82.331,147.218 Q82.331,145.13 82.899,143.307 Q83.468,141.483 84.577,140.122 Q85.687,138.761 87.326,137.968 Q88.964,137.176 91.105,137.176 Q93.324,137.176 95.003,137.955 Q96.681,138.735 97.804,140.096 Q98.927,141.457 99.495,143.293 Q100.063,145.13 100.063,147.218 Q100.063,149.279 99.495,151.089 Q98.927,152.899 97.817,154.26 Q96.707,155.621 95.042,156.414 Q93.377,157.207 91.184,157.207 Q88.991,157.207 87.326,156.414 Q85.661,155.621 84.551,154.26 Q83.441,152.899 82.886,151.089 Q82.331,149.279 82.331,147.218 z M91.21,155.674 Q93.06,155.674 94.395,154.974 Q95.729,154.273 96.588,153.111 Q97.447,151.948 97.857,150.415 Q98.266,148.882 98.266,147.218 Q98.266,145.236 97.777,143.663 Q97.288,142.091 96.363,140.981 Q95.439,139.871 94.117,139.29 Q92.796,138.708 91.158,138.708 Q89.334,138.708 88,139.422 Q86.665,140.135 85.806,141.311 Q84.947,142.487 84.538,144.02 Q84.128,145.553 84.128,147.218 Q84.128,148.909 84.538,150.442 Q84.947,151.974 85.806,153.137 Q86.665,154.3 88,154.987 Q89.334,155.674 91.21,155.674 z" fill="#B8B8B8"/>
      <path d="M103.551,156.705 L103.551,137.678 L110.501,137.678 Q112.351,137.678 113.554,138.101 Q114.756,138.523 115.456,139.263 Q116.157,140.003 116.434,140.968 Q116.712,141.932 116.712,142.989 Q116.712,144.575 116.064,145.606 Q115.417,146.636 114.386,147.231 Q113.356,147.825 112.047,148.063 Q110.739,148.301 109.418,148.301 L105.348,148.301 L105.348,156.705 z M109.471,146.768 Q110.739,146.768 111.744,146.61 Q112.748,146.451 113.448,146.015 Q114.148,145.579 114.531,144.826 Q114.915,144.073 114.915,142.857 Q114.915,141.06 113.739,140.135 Q112.563,139.21 109.999,139.21 L105.348,139.21 L105.348,146.768 z" fill="#B8B8B8"/>
      <path d="M119.777,156.705 L119.777,137.678 L132.435,137.678 L132.435,139.21 L121.574,139.21 L121.574,146.081 L131.378,146.081 L131.378,147.614 L121.574,147.614 L121.574,155.172 L132.699,155.172 L132.699,156.705 z" fill="#B8B8B8"/>
      <path d="M143.296,146.531 Q144.3,146.531 145.159,146.319 Q146.018,146.108 146.652,145.645 Q147.287,145.183 147.657,144.469 Q148.027,143.756 148.027,142.752 Q148.027,141.695 147.643,141.007 Q147.26,140.32 146.613,139.924 Q145.965,139.528 145.133,139.369 Q144.3,139.21 143.402,139.21 L137.694,139.21 L137.694,146.531 z M137.694,148.063 L137.694,156.705 L135.897,156.705 L135.897,137.678 L143.349,137.678 Q146.494,137.678 148.159,138.854 Q149.824,140.03 149.824,142.672 Q149.824,144.469 149.097,145.526 Q148.37,146.583 146.732,147.323 Q147.577,147.614 148.053,148.169 Q148.529,148.724 148.766,149.437 Q149.004,150.151 149.07,150.944 Q149.136,151.736 149.163,152.476 Q149.189,153.56 149.255,154.273 Q149.321,154.987 149.414,155.436 Q149.506,155.885 149.639,156.136 Q149.771,156.387 149.956,156.52 L149.956,156.705 L147.974,156.705 Q147.683,156.229 147.564,155.383 Q147.445,154.538 147.379,153.613 Q147.313,152.688 147.273,151.816 Q147.234,150.944 147.128,150.389 Q146.97,149.622 146.613,149.16 Q146.256,148.697 145.754,148.46 Q145.252,148.222 144.631,148.143 Q144.01,148.063 143.349,148.063 z" fill="#B8B8B8"/>
    </g>
    <path d="M180.896,121.527 L180.896,101.496 L193.805,101.496 L193.805,103.109 L182.788,103.109 L182.788,110.343 L192.803,110.343 L192.803,111.956 L182.788,111.956 L182.788,121.527 z" fill="#B8B8B8"/>
    <path d="M204.321,110.816 Q205.378,110.816 206.282,110.593 Q207.186,110.37 207.854,109.884 Q208.522,109.397 208.911,108.646 Q209.301,107.894 209.301,106.837 Q209.301,105.724 208.897,105.001 Q208.494,104.278 207.812,103.86 Q207.131,103.443 206.254,103.276 Q205.378,103.109 204.432,103.109 L198.423,103.109 L198.423,110.816 z M198.423,112.429 L198.423,121.527 L196.531,121.527 L196.531,101.496 L204.377,101.496 Q207.687,101.496 209.44,102.734 Q211.193,103.972 211.193,106.754 Q211.193,108.646 210.428,109.758 Q209.663,110.871 207.938,111.65 Q208.828,111.956 209.329,112.541 Q209.829,113.125 210.08,113.876 Q210.33,114.627 210.4,115.462 Q210.469,116.296 210.497,117.075 Q210.525,118.216 210.594,118.967 Q210.664,119.718 210.761,120.191 Q210.859,120.664 210.998,120.929 Q211.137,121.193 211.332,121.332 L211.332,121.527 L209.245,121.527 Q208.939,121.026 208.814,120.136 Q208.689,119.245 208.619,118.272 Q208.55,117.298 208.508,116.38 Q208.466,115.462 208.355,114.877 Q208.188,114.071 207.812,113.584 Q207.437,113.097 206.908,112.847 Q206.38,112.596 205.726,112.513 Q205.072,112.429 204.377,112.429 z" fill="#B8B8B8"/>
    <path d="M236.279,104.055 L236.224,104.055 L236.224,121.527 L234.332,121.527 L234.332,101.496 L236.474,101.496 L248.047,118.995 L248.103,118.995 L248.103,101.496 L249.995,101.496 L249.995,121.527 L247.797,121.527 z" fill="#B8B8B8"/>
    <path d="M252.666,101.496 L267.244,101.496 L267.244,103.109 L260.901,103.109 L260.901,121.527 L259.009,121.527 L259.009,103.109 L252.666,103.109 z" fill="#B8B8B8"/>
    <path d="M275.471,121.527 L275.471,101.496 L288.797,101.496 L288.797,103.109 L277.363,103.109 L277.363,110.343 L287.684,110.343 L287.684,111.956 L277.363,111.956 L277.363,119.913 L289.075,119.913 L289.075,121.527 z" fill="#B8B8B8"/>
    <path d="M294.361,104.055 L294.305,104.055 L294.305,121.527 L292.414,121.527 L292.414,101.496 L294.556,101.496 L306.129,118.995 L306.185,118.995 L306.185,101.496 L308.077,101.496 L308.077,121.527 L305.879,121.527 z" fill="#B8B8B8"/>
    <path d="M311.077,121.527 L311.077,101.496 L317.921,101.496 Q318.755,101.496 319.562,101.537 Q320.369,101.579 321.148,101.732 Q321.927,101.885 322.664,102.191 Q323.401,102.497 324.097,102.998 Q325.098,103.721 325.738,104.765 Q326.378,105.808 326.754,106.962 Q327.129,108.117 327.282,109.299 Q327.435,110.482 327.435,111.483 Q327.435,112.485 327.31,113.514 Q327.185,114.544 326.907,115.531 Q326.629,116.519 326.169,117.423 Q325.71,118.327 325.015,119.078 Q324.319,119.857 323.499,120.33 Q322.678,120.803 321.774,121.068 Q320.87,121.332 319.896,121.429 Q318.922,121.527 317.921,121.527 z M312.969,119.913 L317.503,119.913 Q318.783,119.913 319.91,119.76 Q321.037,119.607 322.205,118.995 Q323.207,118.494 323.846,117.632 Q324.486,116.769 324.862,115.754 Q325.237,114.738 325.391,113.626 Q325.544,112.513 325.544,111.483 Q325.544,110.398 325.404,109.272 Q325.265,108.145 324.876,107.129 Q324.486,106.114 323.819,105.265 Q323.151,104.417 322.094,103.86 Q321.203,103.387 319.979,103.248 Q318.755,103.109 317.503,103.109 L312.969,103.109 z" fill="#B8B8B8"/>
    <path d="M213.332,111.538 Q213.332,109.45 213.9,107.627 Q214.468,105.803 215.578,104.442 Q216.688,103.081 218.326,102.288 Q219.965,101.496 222.105,101.496 Q224.325,101.496 226.003,102.275 Q227.681,103.055 228.804,104.416 Q229.927,105.777 230.496,107.613 Q231.064,109.45 231.064,111.538 Q231.064,113.599 230.496,115.409 Q229.927,117.219 228.817,118.58 Q227.708,119.941 226.043,120.734 Q224.378,121.527 222.185,121.527 Q219.991,121.527 218.326,120.734 Q216.661,119.941 215.552,118.58 Q214.442,117.219 213.887,115.409 Q213.332,113.599 213.332,111.538 z M222.211,119.994 Q224.061,119.994 225.395,119.294 Q226.73,118.593 227.589,117.431 Q228.447,116.268 228.857,114.735 Q229.267,113.202 229.267,111.538 Q229.267,109.556 228.778,107.983 Q228.289,106.411 227.364,105.301 Q226.439,104.191 225.118,103.61 Q223.796,103.028 222.158,103.028 Q220.335,103.028 219,103.742 Q217.666,104.455 216.807,105.631 Q215.948,106.807 215.538,108.34 Q215.129,109.873 215.129,111.538 Q215.129,113.229 215.538,114.762 Q215.948,116.294 216.807,117.457 Q217.666,118.62 219,119.307 Q220.335,119.994 222.211,119.994 z" fill="#B8B8B8"/>
  </g>
  <g id="Background">
    <path d="M105.32,37.347 L349.07,37.347 L349.07,85.847 L105.32,85.847 L105.32,37.347 z" fill="#D2D845"/>
    <path d="M159.718,178.399 Q159.718,177.104 160.07,175.973 Q160.423,174.842 161.111,173.997 Q161.8,173.153 162.816,172.661 Q163.832,172.17 165.16,172.17 Q166.537,172.17 167.578,172.653 Q168.619,173.137 169.316,173.981 Q170.013,174.825 170.365,175.965 Q170.718,177.104 170.718,178.399 Q170.718,179.678 170.365,180.801 Q170.013,181.924 169.324,182.768 Q168.636,183.612 167.603,184.104 Q166.57,184.596 165.209,184.596 Q163.849,184.596 162.816,184.104 Q161.783,183.612 161.095,182.768 Q160.406,181.924 160.062,180.801 Q159.718,179.678 159.718,178.399 z" fill-opacity="0" stroke="#D2D944" stroke-width="2"/>
  </g>
  <g id="Text-Main">
    <path d="M130.665,41.347 L141.274,41.347 L141.274,66.457 Q141.274,72.775 135.938,77.311 Q130.601,81.847 123.124,81.847 L109.32,81.847 L109.32,41.347 L119.992,41.347 L119.992,77.365 L125.297,77.365 Q127.534,77.365 129.099,76.015 Q130.665,74.665 130.665,72.829 z" fill="#FFFFFF"/>
    <path d="M147.774,81.847 L147.774,41.347 L179.728,41.347 L179.728,45.829 L160.571,45.829 L160.571,59.329 L173.368,59.329 L173.368,63.865 L160.571,63.865 L160.571,77.365 L179.728,77.365 L179.728,81.847 z" fill="#FFFFFF"/>
    <path d="M214.901,50.365 L208.54,50.365 Q207.698,45.829 202.487,45.829 Q199.115,45.829 197.429,46.963 Q195.743,48.097 195.743,50.365 Q195.743,52.039 197.582,53.551 L211.146,64.243 Q214.901,67.213 214.901,70.615 L214.901,72.829 Q214.901,76.501 211.146,79.174 Q207.391,81.847 202.104,81.847 L195.743,81.847 Q189.383,81.847 186.165,79.606 Q182.946,77.365 182.946,72.829 L189.383,72.829 Q189.383,73.315 189.383,73.585 Q189.383,75.421 191.376,76.393 Q193.368,77.365 195.743,77.365 Q199.115,77.365 200.609,76.204 Q202.104,75.043 202.104,72.829 Q202.104,71.101 200.264,69.643 L186.701,58.951 Q182.946,56.035 182.946,52.579 L182.946,50.365 Q182.946,46.693 186.701,44.02 Q190.456,41.347 195.743,41.347 L202.104,41.347 Q214.134,41.347 214.901,50.365 z" fill="#FFFFFF"/>
    <path d="M220.205,81.847 L220.205,41.347 L252.159,41.347 L252.159,45.829 L233.002,45.829 L233.002,59.329 L245.799,59.329 L245.799,63.865 L233.002,63.865 L233.002,77.365 L252.159,77.365 L252.159,81.847 z" fill="#FFFFFF"/>
    <path d="M257.464,81.847 L257.464,41.347 L270.261,41.347 L270.261,77.365 L289.418,77.365 L289.418,81.847 z" fill="#FFFFFF"/>
    <path d="M295.918,81.847 L295.918,41.347 L306.527,41.347 L306.527,81.847 z" fill="#FFFFFF"/>
    <path d="M313.115,81.847 L313.115,41.347 L315.249,41.347 L340.473,63.865 L340.473,41.347 L345.07,41.347 L345.07,81.847 L342.99,81.847 L317.711,59.329 L317.711,81.847 z" fill="#FFFFFF"/>
    <text transform="matrix(1, 0, 0, 1, 231.332, 162.42)"/>
    <path d="M152.354,33.347 L152.354,1.667 L155.346,1.667 L155.346,15.263 L174.09,15.263 L174.09,1.667 L177.082,1.667 L177.082,33.347 L174.09,33.347 L174.09,17.815 L155.346,17.815 L155.346,33.347 z" fill="#0CA1C5"/>
    <path d="M154.73,121.527 L154.73,89.847 L157.722,89.847 L157.722,118.975 L174.706,118.975 L174.706,121.527 z" fill="#0CA1C5"/>
    <path d="M154.73,157.207 L154.73,125.527 L157.722,125.527 L157.722,154.655 L174.706,154.655 L174.706,157.207 z" fill="#0CA1C5"/>
    <path d="M149.956,177.927 Q149.956,174.451 150.902,171.415 Q151.848,168.379 153.696,166.113 Q155.544,163.847 158.272,162.527 Q161,161.207 164.564,161.207 Q168.26,161.207 171.054,162.505 Q173.848,163.803 175.718,166.069 Q177.588,168.335 178.534,171.393 Q179.48,174.451 179.48,177.927 Q179.48,181.359 178.534,184.373 Q177.588,187.387 175.74,189.653 Q173.892,191.919 171.12,193.239 Q168.348,194.559 164.696,194.559 Q161.044,194.559 158.272,193.239 Q155.5,191.919 153.652,189.653 Q151.804,187.387 150.88,184.373 Q149.956,181.359 149.956,177.927 z M164.74,192.007 Q167.82,192.007 170.042,190.841 Q172.264,189.675 173.694,187.739 Q175.124,185.803 175.806,183.251 Q176.488,180.699 176.488,177.927 Q176.488,174.627 175.674,172.009 Q174.86,169.391 173.32,167.543 Q171.78,165.695 169.58,164.727 Q167.38,163.759 164.652,163.759 Q161.616,163.759 159.394,164.947 Q157.172,166.135 155.742,168.093 Q154.312,170.051 153.63,172.603 Q152.948,175.155 152.948,177.927 Q152.948,180.743 153.63,183.295 Q154.312,185.847 155.742,187.783 Q157.172,189.719 159.394,190.863 Q161.616,192.007 164.74,192.007 z" fill="#0CA1C5"/>
    <path d="M297.418,24.3 L306.027,24.3 L306.027,32.909 L297.418,32.909 L297.418,24.3 z" fill-opacity="0" stroke="#0CA1C5" stroke-width="2"/>
  </g>
</svg>
