<?xml version="1.0" encoding="utf-8"?>
<!-- Generator: Adobe Illustrator 24.0.3, SVG Export Plug-In . SVG Version: 6.00 Build 0)  -->
<svg version="1.1" xmlns="http://www.w3.org/2000/svg" xmlns:xlink="http://www.w3.org/1999/xlink" x="0px" y="0px"
	 viewBox="0 0 300 200" style="enable-background:new 0 0 300 200;" xml:space="preserve">
<style type="text/css">
	.st0{fill:url(#SVGID_1_);}
	.st1{fill:url(#SVGID_2_);fill-opacity:0;}
	.st2{fill:url(#SVGID_3_);}
	.st3{fill:url(#SVGID_4_);fill-opacity:0;}
	.st4{fill:url(#SVGID_5_);}
	.st5{fill:url(#SVGID_6_);fill-opacity:0;}
	.st6{clip-path:url(#SVGID_9_);}
	.st7{clip-path:url(#SVGID_15_);}
	.st8{clip-path:url(#SVGID_21_);}
	.st9{clip-path:url(#SVGID_27_);}
	.st10{clip-path:url(#SVGID_33_);}
	.st11{clip-path:url(#SVGID_39_);}
	.st12{clip-path:url(#SVGID_45_);}
	.st13{clip-path:url(#SVGID_51_);}
	.st14{clip-path:url(#SVGID_57_);}
	.st15{clip-path:url(#SVGID_63_);}
	.st16{clip-path:url(#SVGID_69_);}
	.st17{clip-path:url(#SVGID_75_);}
	.st18{opacity:0.4;fill:#8E31FF;}
</style>
<g id="Layer_1">
	<linearGradient id="SVGID_1_" gradientUnits="userSpaceOnUse" x1="17.4358" y1="12.5812" x2="230.3535" y2="154.2401">
		<stop  offset="0" style="stop-color:#5F41DB"/>
		<stop  offset="0.5" style="stop-color:#B64CF3"/>
		<stop  offset="0.9992" style="stop-color:#C562F0"/>
	</linearGradient>
	<path class="st0" d="M287.1,176.7l-57.2,16l-99.6-20l61.2-9.6v-56.5l0,0l95.6,0.4V176.7z"/>
	<linearGradient id="SVGID_2_" gradientUnits="userSpaceOnUse" x1="17.4358" y1="12.5812" x2="230.3535" y2="154.2401">
		<stop  offset="0" style="stop-color:#5F41DB"/>
		<stop  offset="0.5" style="stop-color:#B64CF3"/>
		<stop  offset="0.9992" style="stop-color:#C562F0"/>
	</linearGradient>
	<path class="st1" d="M287.1,176.7l-57.2,16l-99.6-20l61.2-9.6v-56.5l0,0l95.6,0.4V176.7z"/>
	<linearGradient id="SVGID_3_" gradientUnits="userSpaceOnUse" x1="-12.1237" y1="56.6821" x2="200.9617" y2="198.4526">
		<stop  offset="0" style="stop-color:#5F41DB"/>
		<stop  offset="0.5" style="stop-color:#B64CF3"/>
		<stop  offset="0.9992" style="stop-color:#C562F0"/>
	</linearGradient>
	<path class="st2" d="M168,56.9L0,35.6v148.8l73.6-10.6V200l40-8v-24l54.4-7.8V56.9z"/>
	<linearGradient id="SVGID_4_" gradientUnits="userSpaceOnUse" x1="0" y1="117.8021" x2="167.9573" y2="117.8021">
		<stop  offset="0" style="stop-color:#5F41DB"/>
		<stop  offset="0.5" style="stop-color:#B64CF3"/>
		<stop  offset="0.9992" style="stop-color:#C562F0"/>
	</linearGradient>
	<path class="st3" d="M168,56.9L0,35.6v148.8l73.6-10.6V200l40-8v-24l54.4-7.8V56.9z"/>
	<linearGradient id="SVGID_5_" gradientUnits="userSpaceOnUse" x1="73.4125" y1="-72.0158" x2="286.3997" y2="69.6895">
		<stop  offset="0" style="stop-color:#5F41DB"/>
		<stop  offset="0.5" style="stop-color:#B64CF3"/>
		<stop  offset="0.9992" style="stop-color:#C562F0"/>
	</linearGradient>
	<path class="st4" d="M244.5,0c7.3-0.2,13.8,3.4,16.9,10.2l0.1,0c23.5-5.3,22.2,18.6,23.1,18.3c6.7-2.3,15.1,4.1,15.5,13.2
		c0.4,9-5.1,14.1-15.4,16.3l-51.3,7.6c-4,0.5-7.4-1.6-9.7-4.7l-18,3.2c-6.7,1.1-13.5-5.5-14-12.6c-0.5-7.7,3.7-13.6,9.9-15.2
		c-0.2-2.4,0.1-6.5,1.1-8.7c2.9-5.6,9-8.8,14.7-7.4c4-7.4,4.7-14.4,19.4-18.9l0.9-0.3C241.5,0.2,239.3,0.5,244.5,0z"/>
	<linearGradient id="SVGID_6_" gradientUnits="userSpaceOnUse" x1="73.4125" y1="-72.0158" x2="286.3997" y2="69.6895">
		<stop  offset="0" style="stop-color:#5F41DB"/>
		<stop  offset="0.5" style="stop-color:#B64CF3"/>
		<stop  offset="0.9992" style="stop-color:#C562F0"/>
	</linearGradient>
	<path class="st5" d="M244.5,0c7.3-0.2,13.8,3.4,16.9,10.2l0.1,0c23.5-5.3,22.2,18.6,23.1,18.3c6.7-2.3,15.1,4.1,15.5,13.2
		c0.4,9-5.1,14.1-15.4,16.3l-51.3,7.6c-4,0.5-7.4-1.6-9.7-4.7l-18,3.2c-6.7,1.1-13.5-5.5-14-12.6c-0.5-7.7,3.7-13.6,9.9-15.2
		c-0.2-2.4,0.1-6.5,1.1-8.7c2.9-5.6,9-8.8,14.7-7.4c4-7.4,4.7-14.4,19.4-18.9l0.9-0.3C241.5,0.2,239.3,0.5,244.5,0z"/>
	<g>
		<defs>
			<path id="SVGID_7_" d="M204.1,64.1c-3,0-4.6-1-7-2.5c2.5,1.9,5.2,2.7,8.3,2.4L204.1,64.1z"/>
		</defs>
		<linearGradient id="SVGID_8_" gradientUnits="userSpaceOnUse" x1="197.0741" y1="62.859" x2="205.3757" y2="62.859">
			<stop  offset="0" style="stop-color:#5F41DB"/>
			<stop  offset="0.5" style="stop-color:#B64CF3"/>
			<stop  offset="0.9992" style="stop-color:#C562F0"/>
		</linearGradient>
		<use xlink:href="#SVGID_7_"  style="overflow:visible;fill:url(#SVGID_8_);"/>
		<clipPath id="SVGID_9_">
			<use xlink:href="#SVGID_7_"  style="overflow:visible;"/>
		</clipPath>
		<g class="st6">
			<defs>
				<rect id="SVGID_10_" x="197.1" y="61.6" width="8.3" height="2.5"/>
			</defs>
			<linearGradient id="SVGID_11_" gradientUnits="userSpaceOnUse" x1="197.0741" y1="62.859" x2="205.3757" y2="62.859">
				<stop  offset="0" style="stop-color:#5F41DB"/>
				<stop  offset="0.5" style="stop-color:#B64CF3"/>
				<stop  offset="0.9992" style="stop-color:#C562F0"/>
			</linearGradient>
			<use xlink:href="#SVGID_10_"  style="overflow:visible;fill:url(#SVGID_11_);"/>
			<clipPath id="SVGID_12_">
				<use xlink:href="#SVGID_10_"  style="overflow:visible;"/>
			</clipPath>
			<g transform="matrix(1 0 0 1 0 0)" style="clip-path:url(#SVGID_12_);">
				
					<image style="overflow:visible;" width="24" height="7" xlink:href="599083598C437117.png"  transform="matrix(0.3459 0 0 -0.3553 197.0741 64.1027)">
				</image>
			</g>
		</g>
	</g>
	<g>
		<defs>
			<path id="SVGID_13_" d="M255.8,3.2c1.6,1,2.7,2.6,3.8,4.1l1.5,2.8C259.8,7.5,258.1,5.2,255.8,3.2z"/>
		</defs>
		<linearGradient id="SVGID_14_" gradientUnits="userSpaceOnUse" x1="255.8466" y1="6.6957" x2="261.1149" y2="6.6957">
			<stop  offset="0" style="stop-color:#5F41DB"/>
			<stop  offset="0.5" style="stop-color:#B64CF3"/>
			<stop  offset="0.9992" style="stop-color:#C562F0"/>
		</linearGradient>
		<use xlink:href="#SVGID_13_"  style="overflow:visible;fill:url(#SVGID_14_);"/>
		<clipPath id="SVGID_15_">
			<use xlink:href="#SVGID_13_"  style="overflow:visible;"/>
		</clipPath>
		<g class="st7">
			<defs>
				<rect id="SVGID_16_" x="255.8" y="3.2" width="5.3" height="6.9"/>
			</defs>
			<linearGradient id="SVGID_17_" gradientUnits="userSpaceOnUse" x1="255.8466" y1="6.6957" x2="261.1149" y2="6.6957">
				<stop  offset="0" style="stop-color:#5F41DB"/>
				<stop  offset="0.5" style="stop-color:#B64CF3"/>
				<stop  offset="0.9992" style="stop-color:#C562F0"/>
			</linearGradient>
			<use xlink:href="#SVGID_16_"  style="overflow:visible;fill:url(#SVGID_17_);"/>
			<clipPath id="SVGID_18_">
				<use xlink:href="#SVGID_16_"  style="overflow:visible;"/>
			</clipPath>
			<g transform="matrix(1 0 0 1 0 0)" style="clip-path:url(#SVGID_18_);">
				
					<image style="overflow:visible;" width="15" height="20" xlink:href="599083598C437115.png"  transform="matrix(0.3512 0 0 -0.3462 255.8466 10.1579)">
				</image>
			</g>
		</g>
	</g>
	<g>
		<defs>
			<path id="SVGID_19_" d="M246,0c2,0,4.1,0.3,5.9,1.1C250.1,0.3,248,0.3,246,0z"/>
		</defs>
		<linearGradient id="SVGID_20_" gradientUnits="userSpaceOnUse" x1="245.9973" y1="0.5844" x2="251.9233" y2="0.5844">
			<stop  offset="0" style="stop-color:#5F41DB"/>
			<stop  offset="0.5" style="stop-color:#B64CF3"/>
			<stop  offset="0.9992" style="stop-color:#C562F0"/>
		</linearGradient>
		<use xlink:href="#SVGID_19_"  style="overflow:visible;fill:url(#SVGID_20_);"/>
		<clipPath id="SVGID_21_">
			<use xlink:href="#SVGID_19_"  style="overflow:visible;"/>
		</clipPath>
		<g class="st8">
			<defs>
				<rect id="SVGID_22_" x="246" y="0" width="5.9" height="1.1"/>
			</defs>
			<linearGradient id="SVGID_23_" gradientUnits="userSpaceOnUse" x1="245.9973" y1="0.5844" x2="251.9233" y2="0.5844">
				<stop  offset="0" style="stop-color:#5F41DB"/>
				<stop  offset="0.5" style="stop-color:#B64CF3"/>
				<stop  offset="0.9992" style="stop-color:#C562F0"/>
			</linearGradient>
			<use xlink:href="#SVGID_22_"  style="overflow:visible;fill:url(#SVGID_23_);"/>
			<clipPath id="SVGID_24_">
				<use xlink:href="#SVGID_22_"  style="overflow:visible;"/>
			</clipPath>
			<g style="clip-path:url(#SVGID_24_);">
				
					<image style="overflow:visible;" width="17" height="3" xlink:href="599083598C43711B.png"  transform="matrix(0.3486 0 0 -0.3598 245.9973 1.1241)">
				</image>
			</g>
		</g>
	</g>
	<g>
		<defs>
			<path id="SVGID_25_" d="M204.1,64.1c-3,0-4.6-1-7-2.5c2.5,1.9,5.2,2.7,8.3,2.4L204.1,64.1z"/>
		</defs>
		<linearGradient id="SVGID_26_" gradientUnits="userSpaceOnUse" x1="197.0741" y1="62.859" x2="205.3757" y2="62.859">
			<stop  offset="0" style="stop-color:#5F41DB"/>
			<stop  offset="0.5" style="stop-color:#B64CF3"/>
			<stop  offset="0.9992" style="stop-color:#C562F0"/>
		</linearGradient>
		<use xlink:href="#SVGID_25_"  style="overflow:visible;fill:url(#SVGID_26_);"/>
		<clipPath id="SVGID_27_">
			<use xlink:href="#SVGID_25_"  style="overflow:visible;"/>
		</clipPath>
		<g class="st9">
			<defs>
				<rect id="SVGID_28_" x="197.1" y="61.6" width="8.3" height="2.5"/>
			</defs>
			<linearGradient id="SVGID_29_" gradientUnits="userSpaceOnUse" x1="197.0741" y1="62.859" x2="205.3757" y2="62.859">
				<stop  offset="0" style="stop-color:#5F41DB"/>
				<stop  offset="0.5" style="stop-color:#B64CF3"/>
				<stop  offset="0.9992" style="stop-color:#C562F0"/>
			</linearGradient>
			<use xlink:href="#SVGID_28_"  style="overflow:visible;fill:url(#SVGID_29_);"/>
			<clipPath id="SVGID_30_">
				<use xlink:href="#SVGID_28_"  style="overflow:visible;"/>
			</clipPath>
			<g transform="matrix(1 0 0 1 0 0)" style="clip-path:url(#SVGID_30_);">
				
					<image style="overflow:visible;" width="24" height="7" xlink:href="599083598C43711D.png"  transform="matrix(0.3459 0 0 -0.3553 197.0741 64.1027)">
				</image>
			</g>
		</g>
	</g>
	<g>
		<defs>
			<path id="SVGID_31_" d="M255.8,3.2c1.6,1,2.7,2.6,3.8,4.1l1.5,2.8C259.8,7.5,258.1,5.2,255.8,3.2z"/>
		</defs>
		<linearGradient id="SVGID_32_" gradientUnits="userSpaceOnUse" x1="255.8466" y1="6.6957" x2="261.1149" y2="6.6957">
			<stop  offset="0" style="stop-color:#5F41DB"/>
			<stop  offset="0.5" style="stop-color:#B64CF3"/>
			<stop  offset="0.9992" style="stop-color:#C562F0"/>
		</linearGradient>
		<use xlink:href="#SVGID_31_"  style="overflow:visible;fill:url(#SVGID_32_);"/>
		<clipPath id="SVGID_33_">
			<use xlink:href="#SVGID_31_"  style="overflow:visible;"/>
		</clipPath>
		<g class="st10">
			<defs>
				<rect id="SVGID_34_" x="255.8" y="3.2" width="5.3" height="6.9"/>
			</defs>
			<linearGradient id="SVGID_35_" gradientUnits="userSpaceOnUse" x1="255.8466" y1="6.6957" x2="261.1149" y2="6.6957">
				<stop  offset="0" style="stop-color:#5F41DB"/>
				<stop  offset="0.5" style="stop-color:#B64CF3"/>
				<stop  offset="0.9992" style="stop-color:#C562F0"/>
			</linearGradient>
			<use xlink:href="#SVGID_34_"  style="overflow:visible;fill:url(#SVGID_35_);"/>
			<clipPath id="SVGID_36_">
				<use xlink:href="#SVGID_34_"  style="overflow:visible;"/>
			</clipPath>
			<g transform="matrix(1 0 0 1 0 0)" style="clip-path:url(#SVGID_36_);">
				
					<image style="overflow:visible;" width="15" height="20" xlink:href="599083598C43711F.png"  transform="matrix(0.3512 0 0 -0.3462 255.8466 10.1579)">
				</image>
			</g>
		</g>
	</g>
	<g>
		<defs>
			<path id="SVGID_37_" d="M246,0c2,0,4.1,0.3,5.9,1.1C250.1,0.3,248,0.3,246,0z"/>
		</defs>
		<linearGradient id="SVGID_38_" gradientUnits="userSpaceOnUse" x1="245.9973" y1="0.5844" x2="251.9233" y2="0.5844">
			<stop  offset="0" style="stop-color:#5F41DB"/>
			<stop  offset="0.5" style="stop-color:#B64CF3"/>
			<stop  offset="0.9992" style="stop-color:#C562F0"/>
		</linearGradient>
		<use xlink:href="#SVGID_37_"  style="overflow:visible;fill:url(#SVGID_38_);"/>
		<clipPath id="SVGID_39_">
			<use xlink:href="#SVGID_37_"  style="overflow:visible;"/>
		</clipPath>
		<g class="st11">
			<defs>
				<rect id="SVGID_40_" x="246" y="0" width="5.9" height="1.1"/>
			</defs>
			<linearGradient id="SVGID_41_" gradientUnits="userSpaceOnUse" x1="245.9973" y1="0.5844" x2="251.9233" y2="0.5844">
				<stop  offset="0" style="stop-color:#5F41DB"/>
				<stop  offset="0.5" style="stop-color:#B64CF3"/>
				<stop  offset="0.9992" style="stop-color:#C562F0"/>
			</linearGradient>
			<use xlink:href="#SVGID_40_"  style="overflow:visible;fill:url(#SVGID_41_);"/>
			<clipPath id="SVGID_42_">
				<use xlink:href="#SVGID_40_"  style="overflow:visible;"/>
			</clipPath>
			<g style="clip-path:url(#SVGID_42_);">
				
					<image style="overflow:visible;" width="17" height="3" xlink:href="599083598C43711C.png"  transform="matrix(0.3486 0 0 -0.3598 245.9973 1.1241)">
				</image>
			</g>
		</g>
	</g>
	<g>
		<defs>
			<path id="SVGID_43_" d="M268.2,19.6l2.8,0.7c-3-0.7-2.7-0.9-5.8-0.6c-0.5,0.1-1,0.3-1.4,0.4c-0.2-0.1-0.1,0-0.2-0.3l0.2,0.3
				C266.2,19.4,264.7,19.7,268.2,19.6z"/>
		</defs>
		<linearGradient id="SVGID_44_" gradientUnits="userSpaceOnUse" x1="263.5838" y1="19.8954" x2="270.9895" y2="19.8954">
			<stop  offset="0" style="stop-color:#5F41DB"/>
			<stop  offset="0.5" style="stop-color:#B64CF3"/>
			<stop  offset="0.9992" style="stop-color:#C562F0"/>
		</linearGradient>
		<use xlink:href="#SVGID_43_"  style="overflow:visible;fill:url(#SVGID_44_);"/>
		<clipPath id="SVGID_45_">
			<use xlink:href="#SVGID_43_"  style="overflow:visible;"/>
		</clipPath>
		<g class="st12">
			<defs>
				<rect id="SVGID_46_" x="263.6" y="19.5" width="7.4" height="0.7"/>
			</defs>
			<linearGradient id="SVGID_47_" gradientUnits="userSpaceOnUse" x1="263.5838" y1="19.8954" x2="270.9895" y2="19.8954">
				<stop  offset="0" style="stop-color:#5F41DB"/>
				<stop  offset="0.5" style="stop-color:#B64CF3"/>
				<stop  offset="0.9992" style="stop-color:#C562F0"/>
			</linearGradient>
			<use xlink:href="#SVGID_46_"  style="overflow:visible;fill:url(#SVGID_47_);"/>
			<clipPath id="SVGID_48_">
				<use xlink:href="#SVGID_46_"  style="overflow:visible;"/>
			</clipPath>
			<g transform="matrix(1 0 0 1 0 0)" style="clip-path:url(#SVGID_48_);">
				
					<image style="overflow:visible;" width="21" height="2" xlink:href="599083598C437114.png"  transform="matrix(0.3527 0 0 -0.3703 263.5838 20.2657)">
				</image>
			</g>
		</g>
	</g>
	<g>
		<defs>
			<path id="SVGID_49_" d="M262.8,15.6c0.2,1,0.1,0.2,0.4,2.3L262.8,15.6z"/>
		</defs>
		<linearGradient id="SVGID_50_" gradientUnits="userSpaceOnUse" x1="262.7892" y1="16.7567" x2="263.2372" y2="16.7567">
			<stop  offset="0" style="stop-color:#5F41DB"/>
			<stop  offset="0.5" style="stop-color:#B64CF3"/>
			<stop  offset="0.9992" style="stop-color:#C562F0"/>
		</linearGradient>
		<use xlink:href="#SVGID_49_"  style="overflow:visible;fill:url(#SVGID_50_);"/>
		<clipPath id="SVGID_51_">
			<use xlink:href="#SVGID_49_"  style="overflow:visible;"/>
		</clipPath>
		<g class="st13">
			<defs>
				<rect id="SVGID_52_" x="262.8" y="15.6" width="0.4" height="2.3"/>
			</defs>
			<linearGradient id="SVGID_53_" gradientUnits="userSpaceOnUse" x1="262.7892" y1="16.7567" x2="263.2372" y2="16.7567">
				<stop  offset="0" style="stop-color:#5F41DB"/>
				<stop  offset="0.5" style="stop-color:#B64CF3"/>
				<stop  offset="0.9992" style="stop-color:#C562F0"/>
			</linearGradient>
			<use xlink:href="#SVGID_52_"  style="overflow:visible;fill:url(#SVGID_53_);"/>
			<clipPath id="SVGID_54_">
				<use xlink:href="#SVGID_52_"  style="overflow:visible;"/>
			</clipPath>
			<g transform="matrix(1 0 0 1 0 0)" style="clip-path:url(#SVGID_54_);">
				
					<image style="overflow:visible;" width="1" height="6" xlink:href="599083598C437116.png"  transform="matrix(0.448 0 0 -0.3853 262.7892 17.9125)">
				</image>
			</g>
		</g>
	</g>
	<g>
		<defs>
			<path id="SVGID_55_" d="M261.4,10.8c0.7,1.8,0.4,0.8,1,3L261.4,10.8z"/>
		</defs>
		<linearGradient id="SVGID_56_" gradientUnits="userSpaceOnUse" x1="261.3734" y1="12.2561" x2="262.325" y2="12.2561">
			<stop  offset="0" style="stop-color:#5F41DB"/>
			<stop  offset="0.5" style="stop-color:#B64CF3"/>
			<stop  offset="0.9992" style="stop-color:#C562F0"/>
		</linearGradient>
		<use xlink:href="#SVGID_55_"  style="overflow:visible;fill:url(#SVGID_56_);"/>
		<clipPath id="SVGID_57_">
			<use xlink:href="#SVGID_55_"  style="overflow:visible;"/>
		</clipPath>
		<g class="st14">
			<defs>
				<rect id="SVGID_58_" x="261.4" y="10.8" width="1" height="3"/>
			</defs>
			<linearGradient id="SVGID_59_" gradientUnits="userSpaceOnUse" x1="261.3734" y1="12.2561" x2="262.325" y2="12.2561">
				<stop  offset="0" style="stop-color:#5F41DB"/>
				<stop  offset="0.5" style="stop-color:#B64CF3"/>
				<stop  offset="0.9992" style="stop-color:#C562F0"/>
			</linearGradient>
			<use xlink:href="#SVGID_58_"  style="overflow:visible;fill:url(#SVGID_59_);"/>
			<clipPath id="SVGID_60_">
				<use xlink:href="#SVGID_58_"  style="overflow:visible;"/>
			</clipPath>
			<g style="clip-path:url(#SVGID_60_);">
				
					<image style="overflow:visible;" width="2" height="8" xlink:href="599083598C437112.png"  transform="matrix(0.4758 0 0 -0.3709 261.3734 13.7395)">
				</image>
			</g>
		</g>
	</g>
	<g>
		<defs>
			<path id="SVGID_61_" d="M268.2,19.6l2.8,0.7c-3-0.7-2.7-0.9-5.8-0.6c-0.5,0.1-1,0.3-1.4,0.4c-0.2-0.1-0.1,0-0.2-0.3l0.2,0.3
				C266.2,19.4,264.7,19.7,268.2,19.6z"/>
		</defs>
		<linearGradient id="SVGID_62_" gradientUnits="userSpaceOnUse" x1="263.5838" y1="19.8954" x2="270.9895" y2="19.8954">
			<stop  offset="0" style="stop-color:#5F41DB"/>
			<stop  offset="0.5" style="stop-color:#B64CF3"/>
			<stop  offset="0.9992" style="stop-color:#C562F0"/>
		</linearGradient>
		<use xlink:href="#SVGID_61_"  style="overflow:visible;fill:url(#SVGID_62_);"/>
		<clipPath id="SVGID_63_">
			<use xlink:href="#SVGID_61_"  style="overflow:visible;"/>
		</clipPath>
		<g class="st15">
			<defs>
				<rect id="SVGID_64_" x="263.6" y="19.5" width="7.4" height="0.7"/>
			</defs>
			<linearGradient id="SVGID_65_" gradientUnits="userSpaceOnUse" x1="263.5838" y1="19.8954" x2="270.9895" y2="19.8954">
				<stop  offset="0" style="stop-color:#5F41DB"/>
				<stop  offset="0.5" style="stop-color:#B64CF3"/>
				<stop  offset="0.9992" style="stop-color:#C562F0"/>
			</linearGradient>
			<use xlink:href="#SVGID_64_"  style="overflow:visible;fill:url(#SVGID_65_);"/>
			<clipPath id="SVGID_66_">
				<use xlink:href="#SVGID_64_"  style="overflow:visible;"/>
			</clipPath>
			<g transform="matrix(1 0 0 1 0 0)" style="clip-path:url(#SVGID_66_);">
				
					<image style="overflow:visible;" width="21" height="2" xlink:href="F1E2FBF145BF5854.png"  transform="matrix(0.3527 0 0 -0.3703 263.5838 20.2657)">
				</image>
			</g>
		</g>
	</g>
	<g>
		<defs>
			<path id="SVGID_67_" d="M262.8,15.6c0.2,1,0.1,0.2,0.4,2.3L262.8,15.6z"/>
		</defs>
		<linearGradient id="SVGID_68_" gradientUnits="userSpaceOnUse" x1="262.7892" y1="16.7567" x2="263.2372" y2="16.7567">
			<stop  offset="0" style="stop-color:#5F41DB"/>
			<stop  offset="0.5" style="stop-color:#B64CF3"/>
			<stop  offset="0.9992" style="stop-color:#C562F0"/>
		</linearGradient>
		<use xlink:href="#SVGID_67_"  style="overflow:visible;fill:url(#SVGID_68_);"/>
		<clipPath id="SVGID_69_">
			<use xlink:href="#SVGID_67_"  style="overflow:visible;"/>
		</clipPath>
		<g class="st16">
			<defs>
				<rect id="SVGID_70_" x="262.8" y="15.6" width="0.4" height="2.3"/>
			</defs>
			<linearGradient id="SVGID_71_" gradientUnits="userSpaceOnUse" x1="262.7892" y1="16.7567" x2="263.2372" y2="16.7567">
				<stop  offset="0" style="stop-color:#5F41DB"/>
				<stop  offset="0.5" style="stop-color:#B64CF3"/>
				<stop  offset="0.9992" style="stop-color:#C562F0"/>
			</linearGradient>
			<use xlink:href="#SVGID_70_"  style="overflow:visible;fill:url(#SVGID_71_);"/>
			<clipPath id="SVGID_72_">
				<use xlink:href="#SVGID_70_"  style="overflow:visible;"/>
			</clipPath>
			<g transform="matrix(1 0 0 1 0 0)" style="clip-path:url(#SVGID_72_);">
				
					<image style="overflow:visible;" width="1" height="6" xlink:href="F1E2FBF145BF5853.png"  transform="matrix(0.448 0 0 -0.3853 262.7892 17.9125)">
				</image>
			</g>
		</g>
	</g>
	<g>
		<defs>
			<path id="SVGID_73_" d="M261.4,10.8c0.7,1.8,0.4,0.8,1,3L261.4,10.8z"/>
		</defs>
		<linearGradient id="SVGID_74_" gradientUnits="userSpaceOnUse" x1="261.3734" y1="12.2561" x2="262.325" y2="12.2561">
			<stop  offset="0" style="stop-color:#5F41DB"/>
			<stop  offset="0.5" style="stop-color:#B64CF3"/>
			<stop  offset="0.9992" style="stop-color:#C562F0"/>
		</linearGradient>
		<use xlink:href="#SVGID_73_"  style="overflow:visible;fill:url(#SVGID_74_);"/>
		<clipPath id="SVGID_75_">
			<use xlink:href="#SVGID_73_"  style="overflow:visible;"/>
		</clipPath>
		<g class="st17">
			<defs>
				<rect id="SVGID_76_" x="261.4" y="10.8" width="1" height="3"/>
			</defs>
			<linearGradient id="SVGID_77_" gradientUnits="userSpaceOnUse" x1="261.3734" y1="12.2561" x2="262.325" y2="12.2561">
				<stop  offset="0" style="stop-color:#5F41DB"/>
				<stop  offset="0.5" style="stop-color:#B64CF3"/>
				<stop  offset="0.9992" style="stop-color:#C562F0"/>
			</linearGradient>
			<use xlink:href="#SVGID_76_"  style="overflow:visible;fill:url(#SVGID_77_);"/>
			<clipPath id="SVGID_78_">
				<use xlink:href="#SVGID_76_"  style="overflow:visible;"/>
			</clipPath>
			<g style="clip-path:url(#SVGID_78_);">
				
					<image style="overflow:visible;" width="2" height="8" xlink:href="F1E2FBF145BF586C.png"  transform="matrix(0.4758 0 0 -0.3709 261.3734 13.7395)">
				</image>
			</g>
		</g>
	</g>
</g>
<g id="Layer_2">
	<path class="st18" d="M267.4,9.4c7.1,0,12.2,3.4,14.9,10c1.2,2.8,1.5,5.6,2,8.6c0,0.2,0.2,0.4,0.2,0.5c6.7-2.3,15.1,4.1,15.5,13.2
		c0.4,9-5.1,14.1-15.4,16.3l-51.3,7.6c-4,0.5-7.4-1.6-9.7-4.7l40.5-7.1c11.8-2.5,18-8.3,17.5-18.6c-0.4-10.3-10.1-17.7-17.7-15.1
		c-1.1-2.4-1.2-6.4-2.5-9.6l-0.1-0.3l0.1,0C264.8,9.5,262.8,9.8,267.4,9.4z"/>
</g>
</svg>
