<?xml version="1.0" encoding="UTF-8"?>
<!DOCTYPE svg PUBLIC "-//W3C//DTD SVG 1.1//EN" "http://www.w3.org/Graphics/SVG/1.1/DTD/svg11.dtd">
<svg version="1.1" xmlns="http://www.w3.org/2000/svg" xmlns:xlink="http://www.w3.org/1999/xlink" x="0" y="0" width="60" height="51" viewBox="0, 0, 60, 51">
  <g id="Layer_1">
    <g>
      <path d="M16.439,1.494 C16.86,1.732 16.722,1.578 16.913,1.895 C16.913,1.895 18.847,6.679 21.347,9.971 C23.847,13.263 22.818,12.561 28.523,19.585 C28.798,19.935 28.67,19.764 28.908,20.094 C30.036,18.991 30.233,17.513 30.068,16.021 C30.122,13.141 32.597,10.907 35.815,10.819 L41.506,10.901 C44.386,10.251 47.314,9.825 50.266,9.754 C51.018,9.749 51.772,9.774 52.519,9.868 C52.793,9.902 53.076,9.941 53.342,10.019 C53.584,10.031 53.771,10.249 53.758,10.505 C53.745,10.761 53.184,10.975 52.934,10.992 C52.459,11.025 51.067,10.697 48.098,11.064 C38.736,12.222 38.398,16.68 37.661,18.481 C37.388,19.149 36.755,20.459 36.594,21.456 C36.433,22.453 36.946,22.834 36.933,23.807 C36.921,24.78 36.374,25.534 36.386,25.531 C36.388,25.689 35.216,27.86 35.059,28.078 C34.212,29.261 33.15,30.407 32.918,30.628 C32.751,30.788 31.321,31.603 31.798,32.498 C32.321,33.48 35.202,34.131 36.715,35.245 C38.228,36.359 40.318,37.756 39.491,38.666 C38.916,39.298 37.894,39.346 37.123,39.108 C36.351,38.871 35.518,38.322 35.518,38.322 C35.518,38.322 36.455,39.947 36.805,41.096 C37.113,42.109 37.165,43.127 36.254,43.802 C35.342,44.476 34.112,44.359 33.505,43.539 L33.379,43.368 L33.92,44.96 C34.249,45.926 33.646,47.005 32.572,47.37 C31.754,47.632 30.716,47.453 30.236,46.673 L30.472,47.662 C30.71,48.654 30.228,49.62 29.397,49.818 C28.592,49.986 27.892,49.446 27.587,48.731 C27.447,49.406 26.962,49.925 26.276,50.034 C25.426,50.117 24.655,49.362 24.556,48.347 L24.505,47.836 L24.444,48.712 C24.373,49.73 23.674,50.51 22.883,50.455 C22.026,50.358 21.551,49.468 21.576,48.668 C21.308,49.385 20.657,49.958 19.859,49.823 C19.087,49.641 18.651,48.689 18.885,47.696 L20.115,42.478 C19.827,42.768 19.396,42.967 18.983,42.948 C18.774,42.938 18.724,42.91 18.56,42.848 C17.837,42.522 17.591,41.504 18.011,40.574 L19.166,38.013 C16.244,39.285 17.478,36.111 18.144,35.351 C18.81,34.59 18.947,34.852 20.093,32.15 C21.24,29.448 21.209,28.592 21.818,27.603 L22.213,27.069 C21.825,26.855 21.607,26.493 21.348,26.153 L21.213,26.055 C21.035,26.006 17.284,24.716 17.106,24.661 C16.088,24.348 15.412,23.744 15.531,23.105 C15.6,22.733 14.793,23.019 14.476,22.779 C14.172,22.524 13.954,22.123 13.878,21.735 C13.549,21.715 13.247,21.558 13.037,21.299 C12.842,21.028 12.753,20.727 12.813,20.404 C12.328,20.495 11.034,19.823 10.631,19.564 C9.608,18.906 10.165,18.648 10.088,18.358 C10.068,18.31 10.043,18.278 10,18.25 L8.144,17.701 C7.683,17.564 7.435,17.071 7.577,16.32 L6.409,15.819 C5.968,15.631 5.778,15.11 5.984,14.657 C6.049,14.541 6.116,14.422 6.193,14.297 L4.885,13.543 C4.573,13.34 4.411,12.999 4.489,12.614 L3.912,12.317 C3.486,12.098 3.332,11.564 3.568,11.125 C3.761,10.837 1.921,9.107 1.734,8.789 C1.546,8.471 1.407,8.242 1.577,8.032 C1.747,7.822 2.093,7.821 2.35,8.029 C2.35,8.029 6.682,10.746 10.502,12.396 C13.382,14.054 16.42,15.429 19.443,16.803 L19.417,16.541 C19.465,16.136 19.67,15.819 19.982,15.636 C19.442,15.397 19.335,14.721 19.369,14.195 C20.097,9.735 16.035,2.249 16.035,2.249 C16.035,2.249 16.009,1.617 16.251,1.519 L16.439,1.494 z M36.037,12.024 L35.943,12.028 C35.491,12.086 35.138,12.396 35.112,12.863 C35.112,13.326 35.526,13.702 36.037,13.702 C36.548,13.702 36.962,13.326 36.962,12.863 C36.95,12.355 36.512,12.046 36.037,12.024 L36.037,12.024 z" 
      
      
      
      fill="#FFFFFF"
      />
     
    </g>
    <path d="M16.439,1.494 C16.86,1.732 16.722,1.578 16.913,1.895 C16.913,1.895 18.847,6.679 21.347,9.971 C23.847,13.263 22.818,12.561 28.523,19.585 C28.798,19.935 28.67,19.764 28.908,20.094 C30.036,18.991 30.233,17.513 30.068,16.021 C30.122,13.141 32.597,10.907 35.815,10.819 L41.506,10.901 C44.386,10.251 47.314,9.825 50.266,9.754 C51.018,9.749 51.772,9.774 52.519,9.868 C52.793,9.902 53.076,9.941 53.342,10.019 C53.584,10.031 53.771,10.249 53.758,10.505 C53.745,10.761 53.184,10.975 52.934,10.992 C52.459,11.025 51.067,10.697 48.098,11.064 C38.736,12.222 38.398,16.68 37.661,18.481 C37.388,19.149 36.755,20.459 36.594,21.456 C36.433,22.453 36.946,22.834 36.933,23.807 C36.921,24.78 36.374,25.534 36.386,25.531 C36.388,25.689 35.216,27.86 35.059,28.078 C34.212,29.261 33.15,30.407 32.918,30.628 C32.751,30.788 31.321,31.603 31.798,32.498 C32.321,33.48 35.202,34.131 36.715,35.245 C38.228,36.359 40.318,37.756 39.491,38.666 C38.916,39.298 37.894,39.346 37.123,39.108 C36.351,38.871 35.518,38.322 35.518,38.322 C35.518,38.322 36.455,39.947 36.805,41.096 C37.113,42.109 37.165,43.127 36.254,43.802 C35.342,44.476 34.112,44.359 33.505,43.539 L33.379,43.368 L33.92,44.96 C34.249,45.926 33.646,47.005 32.572,47.37 C31.754,47.632 30.716,47.453 30.236,46.673 L30.472,47.662 C30.71,48.654 30.228,49.62 29.397,49.818 C28.592,49.986 27.892,49.446 27.587,48.731 C27.447,49.406 26.962,49.925 26.276,50.034 C25.426,50.117 24.655,49.362 24.556,48.347 L24.505,47.836 L24.444,48.712 C24.373,49.73 23.674,50.51 22.883,50.455 C22.026,50.358 21.551,49.468 21.576,48.668 C21.308,49.385 20.657,49.958 19.859,49.823 C19.087,49.641 18.651,48.689 18.885,47.696 L20.115,42.478 C19.827,42.768 19.396,42.967 18.983,42.948 C18.774,42.938 18.724,42.91 18.56,42.848 C17.837,42.522 17.591,41.504 18.011,40.574 L19.166,38.013 C16.244,39.285 17.478,36.111 18.144,35.351 C18.81,34.59 18.947,34.852 20.093,32.15 C21.24,29.448 21.209,28.592 21.818,27.603 L22.213,27.069 C21.825,26.855 21.607,26.493 21.348,26.153 L21.213,26.055 C21.035,26.006 17.284,24.716 17.106,24.661 C16.088,24.348 15.412,23.744 15.531,23.105 C15.6,22.733 14.793,23.019 14.476,22.779 C14.172,22.524 13.954,22.123 13.878,21.735 C13.549,21.715 13.247,21.558 13.037,21.299 C12.842,21.028 12.753,20.727 12.813,20.404 C12.328,20.495 11.034,19.823 10.631,19.564 C9.608,18.906 10.165,18.648 10.088,18.358 C10.068,18.31 10.043,18.278 10,18.25 L8.144,17.701 C7.683,17.564 7.435,17.071 7.577,16.32 L6.409,15.819 C5.968,15.631 5.778,15.11 5.984,14.657 C6.049,14.541 6.116,14.422 6.193,14.297 L4.885,13.543 C4.573,13.34 4.411,12.999 4.489,12.614 L3.912,12.317 C3.486,12.098 3.332,11.564 3.568,11.125 C3.761,10.837 1.921,9.107 1.734,8.789 C1.546,8.471 1.407,8.242 1.577,8.032 C1.747,7.822 2.093,7.821 2.35,8.029 C2.35,8.029 6.682,10.746 10.502,12.396 C13.382,14.054 16.42,15.429 19.443,16.803 L19.417,16.541 C19.465,16.136 19.67,15.819 19.982,15.636 C19.442,15.397 19.335,14.721 19.369,14.195 C20.097,9.735 16.035,2.249 16.035,2.249 C16.035,2.249 16.009,1.617 16.251,1.519 L16.439,1.494 z M36.037,12.024 L35.943,12.028 C35.491,12.086 35.138,12.396 35.112,12.863 C35.112,13.326 35.526,13.702 36.037,13.702 C36.548,13.702 36.962,13.326 36.962,12.863 C36.95,12.355 36.512,12.046 36.037,12.024 L36.037,12.024 z" 
    
    
    
    
    fill-opacity="0" 
    stroke="#000000" 
    stroke-width="0.6"
    />
  </g>
</svg>
