<?xml version="1.0" encoding="UTF-8"?>
<!DOCTYPE svg PUBLIC "-//W3C//DTD SVG 1.1//EN" "http://www.w3.org/Graphics/SVG/1.1/DTD/svg11.dtd">
<svg version="1.1" xmlns="http://www.w3.org/2000/svg" xmlns:xlink="http://www.w3.org/1999/xlink" x="0" y="0" width="60" height="51" viewBox="0, 0, 60, 51">
  <g id="Layer_2">
    <g>
      <g>
        <path d="M50.201,9.754 C50.954,9.749 51.708,9.774 52.455,9.868 C52.729,9.902 53.011,9.941 53.277,10.019 C53.52,10.031 53.706,10.249 53.693,10.505 C53.68,10.761 53.12,10.975 52.87,10.992 C52.395,11.025 51.003,10.697 48.033,11.064 C38.671,12.222 38.333,16.68 37.596,18.481 C37.323,19.149 36.69,20.459 36.529,21.456 C36.512,22.305 36.46,21.897 36.668,22.681 C39.308,23.096 41.982,23.121 44.635,23.388 C48.606,23.838 53.496,22.994 53.496,22.994 C53.808,22.94 54.098,23.112 54.144,23.378 C54.191,23.644 53.663,23.958 53.663,23.958 C53.663,23.958 45.475,24.364 42.227,27.384 C41.877,27.606 42.019,27.571 41.851,27.607 C44.353,28.639 46.855,29.686 49.443,30.488 C53.405,32.248 58.553,33.683 58.553,33.683 C58.894,33.736 59.137,33.996 59.095,34.263 C59.053,34.53 58.778,34.578 58.401,34.649 C58.024,34.72 55.393,34.495 55.308,34.83 C55.135,35.299 54.615,35.539 54.147,35.366 L53.511,35.132 C53.269,35.446 52.892,35.552 52.515,35.453 L51.012,34.977 C50.971,35.117 50.926,35.247 50.882,35.372 C50.678,35.828 50.143,36.032 49.687,35.828 L48.478,35.286 C47.999,35.892 47.444,36.035 47.014,35.781 L45.282,34.758 C45.231,34.744 45.188,34.746 45.138,34.763 C44.86,34.898 45.053,35.487 43.825,35.159 C43.341,35.03 41.912,34.509 41.64,34.086 C41.433,34.345 41.138,34.479 40.792,34.514 C40.444,34.529 40.111,34.407 39.864,34.174 C39.511,34.376 39.048,34.479 38.637,34.422 C38.229,34.344 37.881,33.55 37.643,33.849 C37.234,34.363 36.292,34.259 35.333,33.706 C34.272,33.13 33.208,32.561 32.146,31.986 C31.994,32.015 31.839,32.017 31.684,32.023 C31.603,32.277 31.624,32.119 31.733,32.498 C32.256,33.48 35.138,34.131 36.65,35.245 C38.163,36.359 40.253,37.756 39.426,38.666 C38.852,39.298 37.83,39.346 37.058,39.108 C36.286,38.871 35.453,38.322 35.453,38.322 C35.453,38.322 36.391,39.947 36.74,41.096 C37.048,42.109 37.1,43.127 36.189,43.802 C35.278,44.476 34.047,44.359 33.44,43.539 L33.314,43.369 L33.856,44.96 C34.185,45.926 33.581,47.005 32.508,47.37 C31.69,47.632 30.651,47.453 30.172,46.673 L30.408,47.662 C30.645,48.654 30.164,49.62 29.333,49.818 C28.527,49.986 27.827,49.446 27.522,48.731 C27.382,49.406 26.898,49.925 26.211,50.034 C25.361,50.117 24.591,49.362 24.491,48.347 L24.441,47.836 L24.379,48.712 C24.308,49.73 23.609,50.51 22.819,50.455 C21.962,50.358 21.486,49.468 21.511,48.668 C21.243,49.385 20.592,49.958 19.794,49.823 C19.022,49.641 18.586,48.689 18.821,47.696 L20.051,42.478 C19.763,42.768 19.332,42.967 18.918,42.948 C18.709,42.938 18.66,42.91 18.495,42.848 C17.772,42.522 17.527,41.504 17.946,40.574 L19.102,38.014 C16.179,39.285 17.413,36.111 18.079,35.351 C18.745,34.59 18.882,34.852 20.029,32.15 C21.175,29.448 21.145,28.592 21.754,27.603 C27.137,20.221 27.135,21.722 28.823,20.119 C30.51,18.516 30.011,16.288 30.004,16.021 C30.058,13.141 32.532,10.907 35.75,10.819 L41.441,10.901 C44.321,10.251 47.249,9.825 50.201,9.754 z M35.972,12.024 L35.878,12.028 C35.427,12.086 35.074,12.396 35.048,12.863 C35.048,13.326 35.462,13.702 35.972,13.702 C36.483,13.702 36.897,13.326 36.897,12.863 C36.885,12.355 36.447,12.046 35.972,12.024 z" 
        
        
        fill="#FFFFFF"
        />
      </g>
      <path d="M50.201,9.754 C50.954,9.749 51.708,9.774 52.455,9.868 C52.729,9.902 53.011,9.941 53.277,10.019 C53.52,10.031 53.706,10.249 53.693,10.505 C53.68,10.761 53.12,10.975 52.87,10.992 C52.395,11.025 51.003,10.697 48.033,11.064 C38.671,12.222 38.333,16.68 37.596,18.481 C37.323,19.149 36.69,20.459 36.529,21.456 C36.512,22.305 36.46,21.897 36.668,22.681 C39.308,23.096 41.982,23.121 44.635,23.388 C48.606,23.838 53.496,22.994 53.496,22.994 C53.808,22.94 54.098,23.112 54.144,23.378 C54.191,23.644 53.663,23.958 53.663,23.958 C53.663,23.958 45.475,24.364 42.227,27.384 C41.877,27.606 42.019,27.571 41.851,27.607 C44.353,28.639 46.855,29.686 49.443,30.488 C53.405,32.248 58.553,33.683 58.553,33.683 C58.894,33.736 59.137,33.996 59.095,34.263 C59.053,34.53 58.778,34.578 58.401,34.649 C58.024,34.72 55.393,34.495 55.308,34.83 C55.135,35.299 54.615,35.539 54.147,35.366 L53.511,35.132 C53.269,35.446 52.892,35.552 52.515,35.453 L51.012,34.977 C50.971,35.117 50.926,35.247 50.882,35.372 C50.678,35.828 50.143,36.032 49.687,35.828 L48.478,35.286 C47.999,35.892 47.444,36.035 47.014,35.781 L45.282,34.758 C45.231,34.744 45.188,34.746 45.138,34.763 C44.86,34.898 45.053,35.487 43.825,35.159 C43.341,35.03 41.912,34.509 41.64,34.086 C41.433,34.345 41.138,34.479 40.792,34.514 C40.444,34.529 40.111,34.407 39.864,34.174 C39.511,34.376 39.048,34.479 38.637,34.422 C38.229,34.344 37.881,33.55 37.643,33.849 C37.234,34.363 36.292,34.259 35.333,33.706 C34.272,33.13 33.208,32.561 32.146,31.986 C31.994,32.015 31.839,32.017 31.684,32.023 C31.603,32.277 31.624,32.119 31.733,32.498 C32.256,33.48 35.138,34.131 36.65,35.245 C38.163,36.359 40.253,37.756 39.426,38.666 C38.852,39.298 37.83,39.346 37.058,39.108 C36.286,38.871 35.453,38.322 35.453,38.322 C35.453,38.322 36.391,39.947 36.74,41.096 C37.048,42.109 37.1,43.127 36.189,43.802 C35.278,44.476 34.047,44.359 33.44,43.539 L33.314,43.369 L33.856,44.96 C34.185,45.926 33.581,47.005 32.508,47.37 C31.69,47.632 30.651,47.453 30.172,46.673 L30.408,47.662 C30.645,48.654 30.164,49.62 29.333,49.818 C28.527,49.986 27.827,49.446 27.522,48.731 C27.382,49.406 26.898,49.925 26.211,50.034 C25.361,50.117 24.591,49.362 24.491,48.347 L24.441,47.836 L24.379,48.712 C24.308,49.73 23.609,50.51 22.819,50.455 C21.962,50.358 21.486,49.468 21.511,48.668 C21.243,49.385 20.592,49.958 19.794,49.823 C19.022,49.641 18.586,48.689 18.821,47.696 L20.051,42.478 C19.763,42.768 19.332,42.967 18.918,42.948 C18.709,42.938 18.66,42.91 18.495,42.848 C17.772,42.522 17.527,41.504 17.946,40.574 L19.102,38.014 C16.179,39.285 17.413,36.111 18.079,35.351 C18.745,34.59 18.882,34.852 20.029,32.15 C21.175,29.448 21.145,28.592 21.754,27.603 C27.137,20.221 27.135,21.722 28.823,20.119 C30.51,18.516 30.011,16.288 30.004,16.021 C30.058,13.141 32.532,10.907 35.75,10.819 L41.441,10.901 C44.321,10.251 47.249,9.825 50.201,9.754 z M35.972,12.024 L35.878,12.028 C35.427,12.086 35.074,12.396 35.048,12.863 C35.048,13.326 35.462,13.702 35.972,13.702 C36.483,13.702 36.897,13.326 36.897,12.863 C36.885,12.355 36.447,12.046 35.972,12.024 z" 
      
      
      
      fill-opacity="0" 
      stroke="#000000" 
      stroke-width="0.6"
      />
    </g>
  
  </g>
</svg>
