<?xml version="1.0" encoding="UTF-8"?>
<!DOCTYPE svg PUBLIC "-//W3C//DTD SVG 1.1//EN" "http://www.w3.org/Graphics/SVG/1.1/DTD/svg11.dtd">
<svg version="1.1" xmlns="http://www.w3.org/2000/svg" xmlns:xlink="http://www.w3.org/1999/xlink" x="0" y="0" width="60" height="51" viewBox="0, 0, 60, 51">
  <g id="Layer_1">
    <path d="M28.908,20.094 C30.036,18.991 30.233,17.513 30.068,16.021 C30.122,13.141 32.597,10.907 35.815,10.819 L41.506,10.901 C44.386,10.251 47.314,9.825 50.266,9.754 C51.018,9.749 51.772,9.774 52.519,9.868 C52.793,9.902 53.076,9.941 53.342,10.019 C53.584,10.031 53.771,10.249 53.758,10.505 C53.745,10.761 53.184,10.975 52.934,10.992 C52.459,11.025 51.067,10.697 48.098,11.064 C38.736,12.222 38.398,16.68 37.661,18.481 C37.388,19.149 36.755,20.459 36.594,21.456 L36.571,21.636" fill-opacity="0" stroke="#000000" stroke-width="0.55"/>
    <path d="M31.73,32.331 L31.798,32.498 C32.321,33.48 35.202,34.131 36.715,35.245 C38.228,36.359 40.318,37.756 39.491,38.666 C38.916,39.298 37.894,39.346 37.123,39.108 C36.351,38.871 35.518,38.322 35.518,38.322 C35.518,38.322 36.455,39.947 36.805,41.096 C37.113,42.109 37.165,43.127 36.254,43.802 C35.342,44.476 34.112,44.359 33.505,43.539 L33.379,43.368 L33.92,44.96 C34.249,45.926 33.646,47.005 32.572,47.37 C31.754,47.632 30.716,47.453 30.236,46.673 L30.472,47.662 C30.71,48.654 30.228,49.62 29.397,49.818 C28.592,49.986 27.892,49.446 27.587,48.731 C27.447,49.406 26.962,49.925 26.276,50.034 C25.426,50.117 24.655,49.362 24.556,48.347 L24.505,47.836 L24.444,48.712 C24.373,49.73 23.674,50.51 22.883,50.455 C22.026,50.358 21.551,49.468 21.576,48.668 C21.308,49.385 20.657,49.958 19.859,49.823 C19.087,49.641 18.651,48.689 18.885,47.696 L20.115,42.478 C19.827,42.768 19.396,42.967 18.983,42.948 C18.774,42.938 18.724,42.91 18.56,42.848 C17.837,42.522 17.591,41.504 18.011,40.574 L19.166,38.013 C16.244,39.285 17.478,36.111 18.144,35.351 C18.81,34.59 18.947,34.852 20.093,32.15 C21.24,29.448 21.209,28.592 21.818,27.603 L22.213,27.069 M36.037,12.024 L35.943,12.028 C35.491,12.086 35.138,12.396 35.112,12.863 C35.112,13.326 35.526,13.702 36.037,13.702 C36.548,13.702 36.962,13.326 36.962,12.863 C36.95,12.355 36.512,12.046 36.037,12.024 L36.037,12.024" fill-opacity="0" stroke="#000000" stroke-width="0.6"/>
  </g>
</svg>
